<svg width="512.000000pt" height="512.000000pt" viewBox="0 0 512.000000 512.000000" xmlns="http://www.w3.org/2000/svg">
  <g transform="translate(0.000000,512.000000) scale(0.100000,-0.100000)" fill="rgba(0,0,0,0)" stroke="none">
    <path d="M0 2560 l0 -2560 2560 0 2560 0 0 2560 0 2560 -2560 0 -2560 0 0
-2560z m4891 1661 c-9 -16 -55 -60 -151 -145 -62 -54 -968 -844 -1390 -1210
-190 -165 -412 -359 -495 -431 -82 -72 -411 -358 -730 -635 -319 -277 -632
-553 -695 -615 -184 -178 -295 -255 -429 -295 l-74 -23 -81 -1 c-102 0 -169
16 -275 66 l-84 40 -76 77 -76 76 -37 70 c-44 85 -67 171 -75 279 l-6 83 37
109 36 109 35 53 c40 59 146 150 208 180 125 58 286 139 397 198 96 51 2799
1460 3580 1866 74 39 186 97 248 130 l114 59 14 -12 14 -11 -9 -17z" />
  </g>
  <g transform="translate(0.000000,512.000000) scale(0.100000,-0.100000)" fill="#253f91" stroke="none">
    <path d="M4853 4245 l-21 -15 -4 12 -4 12 -113 -62 c-62 -34 -122 -64 -132
-67 -11 -4 -19 -10 -19 -14 0 -4 -79 -52 -175 -107 l-174 -99 -1 -17 c0 -24 9
-23 64 8 88 49 45 17 -69 -51 -106 -64 -139 -95 -99 -95 12 0 319 178 484 282
70 43 12 -1 -125 -96 -77 -54 -197 -134 -267 -178 -114 -72 -153 -108 -116
-108 14 0 126 65 211 122 88 60 69 40 -73 -71 -117 -93 -152 -131 -118 -131
13 0 61 36 382 288 270 211 296 232 369 304 l59 57 -4 18 c-4 23 -28 27 -55 8z" />
    <path d="M3483 3455 c-306 -175 -637 -376 -862 -524 -216 -143 -231 -151 -231
-128 0 14 387 274 587 393 116 69 157 104 123 104 -11 0 -336 -153 -511 -240
-65 -33 -130 -60 -143 -60 l-24 0 -699 -364 -698 -364 -3 -16 -3 -16 14 0 c19
0 206 88 236 112 24 18 51 24 51 11 0 -11 -58 -43 -76 -43 -8 0 -14 -4 -14 -9
0 -5 -15 -14 -32 -22 -48 -19 -68 -59 -30 -59 26 0 182 83 182 97 0 7 113 69
251 138 213 107 444 230 547 291 l27 16 -24 -20 c-14 -11 -94 -58 -178 -103
-328 -179 -573 -322 -573 -335 0 -6 -14 -17 -31 -24 -17 -7 -36 -18 -42 -24
-7 -6 -49 -29 -95 -51 -74 -35 -105 -65 -68 -65 19 0 170 71 174 82 5 11 139
78 157 78 7 0 15 4 17 8 4 11 98 62 113 62 8 0 15 4 17 8 5 12 77 52 94 52 8
0 14 4 14 8 0 5 19 17 43 28 23 10 44 21 47 25 6 7 46 29 54 29 18 0 2 -21
-19 -26 -14 -3 -25 -10 -25 -14 0 -4 -15 -13 -32 -21 -18 -7 -35 -16 -38 -19
-10 -12 -82 -50 -95 -50 -7 0 -15 -4 -17 -8 -4 -11 -98 -62 -113 -62 -8 0 -15
-4 -17 -9 -2 -5 -34 -25 -73 -46 -38 -20 -89 -49 -112 -63 l-43 -27 0 -16 c0
-9 -7 -19 -15 -23 -8 -3 -15 -13 -15 -22 l0 -16 26 6 c14 4 35 15 45 25 11 10
39 27 62 37 23 10 48 24 55 31 7 7 20 13 28 13 8 0 14 4 14 9 0 5 26 21 57 37
32 16 63 35 71 42 7 6 20 12 28 12 8 0 14 4 14 9 0 5 10 13 22 17 12 3 28 13
36 20 7 8 20 14 28 14 8 0 14 4 14 8 0 5 17 17 37 28 21 10 46 27 57 37 22 19
36 22 36 8 0 -11 -92 -71 -108 -71 -7 0 -12 -4 -12 -9 0 -5 -10 -13 -22 -17
-12 -3 -29 -14 -39 -23 -10 -9 -48 -32 -86 -51 -37 -19 -73 -41 -81 -47 -7 -7
-20 -13 -28 -13 -8 0 -14 -4 -14 -10 0 -5 -11 -12 -25 -16 l-25 -6 -6 -23 -5
-22 -50 -23 c-49 -23 -65 -50 -31 -50 10 0 27 7 38 15 25 19 34 19 34 0 l0
-15 25 0 c14 0 25 5 25 10 0 6 7 10 15 10 l15 0 0 20 0 20 -15 0 c-8 0 -15 -7
-15 -15 0 -8 -7 -15 -15 -15 -26 0 -17 14 25 40 22 14 40 28 40 32 0 9 127 84
225 133 44 22 82 43 85 46 6 7 67 39 75 39 17 0 0 -20 -27 -31 -18 -7 -35 -16
-38 -19 -10 -13 -246 -150 -258 -150 l-12 0 -1 -27 c0 -16 -3 -22 -6 -15 -7
17 -33 15 -33 -2 0 -8 8 -17 18 -19 l17 -5 -22 -7 -23 -7 0 -19 c0 -22 28 -38
39 -22 19 29 101 72 101 53 0 -5 -5 -10 -10 -10 -6 0 -20 -8 -31 -19 -11 -10
-36 -27 -56 -37 -53 -27 -80 -53 -87 -80 -4 -13 -13 -24 -21 -24 -8 0 -15 -7
-15 -15 0 -8 7 -15 15 -15 8 0 15 4 15 8 0 4 12 13 28 19 39 17 86 46 95 61 4
6 12 12 17 12 6 0 19 9 30 20 l20 20 24 -6 23 -6 69 44 c81 52 107 66 79 43
-11 -9 -67 -46 -125 -83 -58 -37 -106 -70 -108 -74 -2 -5 -13 -8 -24 -8 -22 0
-72 -25 -102 -52 -11 -10 -26 -18 -33 -18 -7 0 -13 -4 -13 -10 0 -5 -7 -10
-15 -10 -8 0 -15 -7 -15 -15 0 -8 7 -15 15 -15 8 0 15 4 15 10 0 5 7 7 15 4 8
-4 15 -12 15 -20 0 -8 7 -14 15 -14 8 0 15 7 15 15 0 8 -4 15 -10 15 -23 0 -7
18 33 36 41 18 53 26 82 52 7 6 23 12 34 12 12 0 21 4 21 10 0 5 11 12 25 16
14 3 25 9 25 13 0 10 60 44 67 38 7 -7 -77 -67 -94 -67 -7 0 -13 -4 -13 -9 0
-5 -13 -14 -30 -21 l-30 -12 0 -34 c0 -19 5 -34 10 -34 6 0 10 -7 10 -15 0 -8
7 -15 15 -15 8 0 15 7 15 15 0 8 -4 15 -10 15 -22 0 -8 18 28 36 20 10 38 22
40 27 2 4 8 7 13 7 6 0 19 8 30 19 11 10 37 27 57 37 20 11 39 22 40 27 2 4
10 7 17 7 7 0 15 4 17 8 4 12 155 112 168 112 5 0 10 4 10 9 0 13 80 63 93 57
l12 -5 -22 -6 c-12 -4 -24 -13 -27 -21 -3 -8 -12 -14 -21 -14 -8 0 -15 -4 -15
-9 0 -10 -242 -171 -258 -171 -7 0 -12 -4 -12 -10 0 -5 -7 -10 -15 -10 -8 0
-15 -3 -15 -8 0 -4 -18 -18 -40 -32 -22 -14 -40 -30 -40 -37 0 -18 35 -16 50
2 7 8 19 15 26 15 8 0 14 4 14 9 0 5 11 11 25 14 30 5 27 1 -24 -33 -21 -14
-81 -58 -133 -97 -52 -40 -100 -73 -106 -73 -20 0 -13 -28 8 -35 l19 -6 31 22
c16 13 32 20 35 18 7 -8 -86 -99 -102 -99 -7 0 -13 -7 -13 -15 l0 -14 38 2 37
2 3 20 3 20 92 67 c51 36 111 81 135 98 23 17 42 30 42 27 0 -2 -42 -37 -94
-76 l-94 -72 -9 -47 -8 -47 -29 3 -29 4 6 -21 5 -21 -26 -16 c-15 -9 -35 -27
-45 -40 l-18 -24 6 -20 c10 -31 29 -24 94 30 110 91 64 45 -79 -80 l-140 -122
0 -24 0 -24 -14 0 c-7 0 -27 -12 -44 -27 -17 -16 -38 -34 -46 -41 -18 -14 -22
-62 -5 -62 5 0 49 38 97 84 48 46 319 285 602 531 283 246 516 455 516 464 1
9 2 21 3 27 1 5 42 45 91 88 86 74 104 100 79 108 -7 2 61 67 151 143 l162
140 22 -3 22 -2 160 142 c298 265 564 500 589 520 26 20 34 48 13 48 -6 0 -45
-28 -87 -62 -96 -78 -551 -458 -737 -614 -426 -358 -503 -423 -549 -458 l-50
-39 31 29 c17 16 44 40 60 54 16 14 56 55 89 90 33 36 125 120 205 187 80 67
249 209 375 315 127 106 290 242 363 302 118 98 153 136 122 136 -11 0 -292
-207 -615 -453 -238 -182 -292 -224 -604 -471 l-223 -178 -9 9 -10 10 58 49
c104 90 364 298 548 438 164 126 206 166 176 166 -10 0 -92 -57 -580 -402
l-125 -87 -23 5 -24 6 -37 -24 c-81 -53 -92 -60 -92 -56 0 7 138 98 163 107
12 5 213 143 447 308 234 164 482 338 553 387 70 49 127 93 127 97 0 5 7 9 15
9 8 0 15 7 15 15 0 8 -7 15 -15 15 -8 0 -15 -4 -15 -10 0 -5 -5 -10 -11 -10
-6 0 -88 -53 -182 -118 -456 -314 -795 -535 -809 -526 -19 12 0 27 152 124
l160 102 0 14 c0 25 -18 16 -234 -121 -117 -74 -221 -135 -230 -135 l-18 0 4
12 c2 6 327 214 721 462 394 248 717 457 717 464 0 23 -25 12 -207 -93z m-933
-469 c0 -6 -321 -179 -325 -175 -3 3 314 179 323 179 1 0 2 -2 2 -4z m-481
-230 c-8 -8 -298 -166 -388 -210 -150 -76 -117 -51 49 36 85 45 193 103 240
129 72 41 115 60 99 45z m871 -20 c0 -3 -64 -56 -142 -119 -79 -62 -208 -169
-288 -236 -80 -67 -154 -127 -165 -133 -27 -14 -25 -13 175 154 270 224 420
343 420 334z m-785 -104 c-15 -13 -111 -66 -102 -56 13 14 91 63 102 63 l9 1
-9 -8z m-55 -220 c0 -11 -85 -72 -99 -72 -6 0 -11 -4 -11 -9 0 -8 -270 -191
-283 -191 -4 0 -7 5 -7 10 0 6 7 10 15 10 8 0 15 5 15 10 0 6 7 10 15 10 8 0
15 5 15 10 0 6 6 10 14 10 8 0 16 4 18 8 4 12 95 72 107 72 6 0 11 5 11 10 0
6 7 10 15 10 8 0 15 5 15 10 0 6 6 10 14 10 8 0 16 4 18 9 8 24 128 101 128
83z m15 -71 c-20 -19 -218 -141 -223 -137 -7 8 9 26 24 26 8 0 56 27 107 60
89 58 111 70 92 51z m35 -25 c0 -3 -47 -36 -105 -71 -49 -30 -15 -1 45 39 55
36 60 39 60 32z m275 -191 c-16 -14 -145 -112 -285 -217 -140 -105 -261 -196
-267 -201 -7 -5 -13 -7 -13 -4 0 3 91 73 203 155 111 83 242 182 291 221 83
67 137 101 71 46z m-270 -66 c-92 -67 -335 -231 -335 -225 0 3 64 48 143 102
78 53 165 114 192 135 28 21 54 38 60 38 5 1 -22 -22 -60 -50z" />
    <path d="M2773 2435 c-3 -9 -3 -18 0 -22 10 -10 37 6 37 22 0 20 -29 20 -37 0z" />
    <path d="M1200 2085 l0 -15 -20 0 c-30 0 -70 -22 -70 -38 l0 -14 23 7 c12 3
32 9 45 12 12 3 22 12 22 19 0 8 7 14 15 14 8 0 15 7 15 15 0 8 -7 15 -15 15
-8 0 -15 -7 -15 -15z" />
    <path d="M1063 2065 c-3 -9 -3 -18 0 -22 10 -10 37 6 37 22 0 20 -29 20 -37 0z" />
    <path d="M1310 2065 l0 -15 20 0 c33 0 23 -13 -40 -49 -33 -19 -60 -41 -60
-48 l0 -13 23 0 c12 0 33 9 47 20 14 11 31 20 38 20 6 0 12 5 12 10 0 6 5 10
11 10 6 0 24 13 40 29 30 30 37 51 18 51 -6 0 -17 -7 -25 -15 -9 -8 -20 -15
-25 -15 -5 0 -9 7 -9 15 l0 15 -25 0 -25 0 0 -15z" />
    <path d="M1260 2030 l0 -20 15 0 15 0 0 20 0 20 -15 0 -15 0 0 -20z" />
    <path d="M503 2008 c-18 -11 -33 -24 -33 -29 0 -14 27 -11 44 6 8 8 19 15 25
15 6 0 11 7 11 15 0 19 -7 18 -47 -7z" />
    <path d="M1380 1875 c0 -8 5 -15 10 -15 6 0 10 -9 10 -20 0 -11 5 -20 10 -20
18 0 11 -18 -10 -25 -25 -8 -27 -35 -2 -35 21 0 72 42 72 60 l0 12 -20 -5 -20
-5 0 19 c0 10 -4 19 -10 19 -5 0 -10 7 -10 15 0 8 -7 15 -15 15 -8 0 -15 -7
-15 -15z" />
    <path d="M1570 1835 c0 -8 5 -15 10 -15 6 0 10 -7 10 -15 0 -8 -7 -15 -15 -15
-8 0 -15 -7 -15 -15 0 -8 7 -15 15 -15 8 0 15 5 15 10 0 6 7 10 15 10 l15 0 0
20 c0 11 -4 20 -10 20 -5 0 -10 7 -10 15 0 8 -7 15 -15 15 -8 0 -15 -7 -15
-15z" />
    <path d="M1510 1810 c0 -5 -7 -10 -15 -10 -8 0 -15 -7 -15 -15 0 -8 7 -15 15
-15 8 0 15 5 15 10 0 6 7 10 15 10 8 0 15 7 15 15 0 8 -7 15 -15 15 -8 0 -15
-4 -15 -10z" />
    <path d="M1485 1746 c-45 -24 -75 -53 -75 -73 0 -20 34 -16 55 7 10 11 24 20
30 20 7 0 15 7 19 15 3 8 12 15 21 15 l15 0 0 20 c0 25 -14 24 -65 -4z" />
    <path d="M1490 1635 l0 -15 20 0 20 0 0 15 0 15 -20 0 -20 0 0 -15z" />
    <path d="M1526 1434 c-9 -24 -7 -34 8 -34 13 0 26 20 26 41 0 15 -27 10 -34
-7z" />
    <path d="M1438 1355 c-6 -14 -15 -25 -20 -25 -4 0 -8 -7 -8 -15 0 -8 5 -15 11
-15 15 0 59 51 59 68 0 22 -30 13 -42 -13z" />
    <path d="M1298 1092 c-5 -13 -156 -121 -193 -139 -37 -18 -47 -43 -17 -43 37
0 251 155 252 183 0 10 -37 9 -42 -1z" />
  </g>
  <g transform="translate(0.000000,512.000000) scale(0.100000,-0.100000)" fill="#1d1b4a" stroke="none">
    <path d="M4843 4260 c-13 -5 -23 -13 -23 -18 0 -4 -30 -25 -67 -46 -38 -22
-70 -42 -73 -45 -8 -10 -44 -31 -62 -37 -10 -4 -18 -10 -18 -15 0 -5 -4 -9
-10 -9 -5 0 -42 -20 -82 -44 -134 -80 -288 -165 -288 -158 0 4 64 43 141 87
138 78 157 91 145 102 -9 9 -2082 -1072 -2078 -1084 6 -20 51 -1 298 118 374
183 404 193 214 79 -58 -35 -207 -131 -332 -214 l-228 -150 0 -23 0 -23 19 0
c10 0 115 63 232 141 212 139 612 383 844 514 66 37 136 77 155 88 19 11 32
17 28 12 -4 -4 -324 -207 -710 -450 l-703 -442 0 -24 0 -24 25 3 c20 3 189
105 398 240 12 8 22 12 22 9 0 -3 -65 -46 -145 -97 l-145 -92 0 -19 c0 -11 7
-22 15 -25 l14 -6 63 38 c58 35 375 244 668 441 69 46 114 75 100 64 -40 -32
-954 -673 -967 -678 -7 -3 -13 -19 -13 -35 l0 -30 22 4 c19 4 208 133 593 406
86 61 26 10 -115 -98 -136 -104 -451 -358 -524 -422 l-40 -34 7 -17 c12 -32
39 -16 260 160 407 323 673 527 1012 777 228 168 227 167 -76 -86 -234 -195
-497 -415 -664 -556 -54 -46 -125 -113 -158 -150 -33 -36 -81 -82 -106 -102
-25 -20 -52 -44 -59 -52 l-13 -16 11 -7 c18 -11 110 62 501 395 301 256 868
728 919 764 24 17 -20 -24 -195 -178 -88 -77 -243 -215 -346 -306 -103 -91
-251 -222 -330 -292 -79 -70 -164 -145 -189 -168 -25 -23 -84 -76 -132 -118
-88 -76 -109 -105 -90 -124 l11 -11 133 115 c73 63 331 287 573 498 1445 1258
1358 1180 1326 1180 -5 0 -33 -19 -63 -43 -55 -45 -344 -271 -410 -321 -21
-16 -38 -26 -38 -23 0 6 307 250 321 255 10 4 12 32 2 32 -3 0 -61 -35 -127
-79 -132 -86 -216 -135 -216 -128 0 2 57 41 128 85 244 154 552 375 540 387
-7 7 -40 -11 -173 -95 -168 -107 -475 -288 -475 -281 0 4 82 56 183 116 100
60 215 130 256 157 41 26 78 48 82 48 5 0 9 4 9 9 0 5 8 11 18 15 9 3 35 17
57 31 22 14 50 31 63 37 12 6 22 15 22 20 0 4 5 8 10 8 15 0 90 51 90 61 0 11
-18 10 -47 -1z" />
  </g>
  <g transform="translate(0.000000,512.000000) scale(0.100000,-0.100000)" fill="#edb349" stroke="none">
    <path d="M1880 2536 c-14 -7 -45 -24 -70 -38 -128 -71 -171 -94 -230 -125 -36
-20 -103 -56 -150 -81 -47 -25 -143 -75 -215 -112 -71 -37 -148 -77 -169 -89
l-39 -22 -8 8 -8 8 210 104 209 103 0 14 c0 26 -30 15 -272 -101 -133 -63
-247 -115 -255 -115 -32 0 -4 20 120 83 72 37 155 81 182 97 28 16 66 36 85
45 38 17 70 43 70 57 0 22 -54 1 -183 -71 -208 -116 -384 -202 -452 -221 l-60
-17 -9 -53 -9 -53 12 -20 13 -20 -11 -7 -12 -7 11 -89 c10 -88 26 -158 57
-242 l16 -43 35 3 36 3 10 -27 10 -27 -17 -19 c-28 -30 -5 -85 81 -190 l18
-24 42 13 42 12 26 -11 25 -12 14 -34 14 -33 -5 -34 -6 -34 19 -17 c119 -108
203 -90 302 66 21 33 87 108 145 165 58 57 106 110 106 117 0 23 -28 16 -59
-13 -116 -111 -120 -114 -113 -78 l4 25 67 59 c36 32 71 60 77 62 10 4 75 57
140 116 26 24 32 53 12 53 -7 0 -74 -50 -148 -111 l-135 -111 -4 18 -3 18 28
24 c40 33 150 130 198 173 l39 36 -6 17 -7 17 -17 -10 c-10 -5 -32 -23 -49
-38 -17 -15 -65 -57 -105 -92 l-74 -65 -3 18 -4 18 29 27 c16 14 49 39 72 56
24 16 45 35 48 42 3 7 9 13 15 13 18 0 248 182 248 196 0 30 -115 -31 -190
-101 -14 -13 -70 -58 -124 -99 l-99 -76 -15 21 -14 20 18 20 c9 10 21 19 27
19 9 0 127 68 137 79 3 4 22 15 43 26 20 11 37 23 37 27 0 5 5 8 12 8 13 0
141 81 146 92 2 5 10 8 18 8 8 0 14 5 14 10 0 6 5 10 10 10 10 0 240 150 267
174 33 29 43 36 52 36 6 0 15 9 21 19 l10 20 -10 6 c-12 7 -120 -54 -120 -67
0 -4 -4 -8 -9 -8 -9 0 -140 -86 -168 -110 -7 -5 -17 -10 -23 -10 -5 0 -10 -4
-10 -10 0 -5 -5 -10 -11 -10 -7 0 -34 -16 -60 -35 -27 -19 -54 -35 -59 -35 -6
0 -10 -4 -10 -10 0 -5 -5 -10 -12 -10 -6 0 -25 -10 -42 -23 -17 -12 -48 -31
-68 -42 -21 -11 -38 -23 -38 -27 0 -5 -4 -8 -10 -8 -5 0 -43 -20 -83 -45 -75
-45 -97 -53 -97 -35 0 6 -11 10 -25 10 -31 0 -33 20 -2 21 12 0 49 16 82 34
33 18 78 42 100 53 22 10 71 37 109 60 37 23 70 42 73 42 15 0 93 63 93 75 0
22 -29 18 -64 -8 -17 -13 -38 -27 -46 -30 -8 -4 -33 -18 -55 -31 -22 -12 -61
-35 -88 -49 -26 -15 -69 -39 -95 -53 -26 -15 -63 -35 -82 -44 l-35 -18 -23 35
c-13 19 -22 35 -20 36 49 25 233 141 236 149 2 4 8 8 13 8 12 0 93 52 97 63 2
4 10 7 18 7 8 0 14 5 14 10 0 6 5 10 10 10 13 0 284 180 288 192 2 4 8 8 14 8
18 0 98 70 98 86 0 27 -134 -43 -148 -78 -2 -4 -10 -8 -18 -8 -8 0 -14 -4 -14
-10 0 -5 -7 -10 -15 -10 -8 0 -15 -4 -15 -10 0 -5 -5 -10 -10 -10 -6 0 -35
-18 -65 -40 -30 -22 -59 -40 -65 -40 -5 0 -10 -4 -10 -10 0 -5 -7 -10 -15 -10
-8 0 -15 -4 -15 -10 0 -5 -7 -10 -15 -10 -8 0 -15 -4 -15 -10 0 -5 -5 -10 -10
-10 -12 0 -94 -52 -98 -62 -2 -5 -7 -8 -12 -8 -5 0 -69 -38 -144 -85 l-136
-84 -25 23 -26 24 57 34 c31 18 68 41 83 50 14 10 35 22 46 28 11 6 34 19 50
30 17 10 54 31 83 47 28 15 52 31 52 35 0 4 4 8 9 8 5 0 64 33 130 73 67 39
134 78 149 86 33 17 62 41 62 53 0 17 -48 7 -84 -17 -20 -14 -40 -25 -43 -25
-9 0 -302 -179 -343 -210 -19 -14 -51 -33 -70 -43 -19 -9 -57 -30 -85 -47 -27
-16 -60 -34 -72 -39 -11 -5 -24 -15 -28 -20 -8 -14 -42 -14 -50 -1 l-6 10 24
9 c20 8 123 66 177 101 8 5 31 19 50 30 19 11 49 29 65 40 17 11 39 24 50 30
11 5 27 14 35 19 8 6 48 29 88 53 40 24 85 51 100 60 15 10 34 21 42 25 25 11
104 66 112 77 22 32 -17 36 -55 6 -14 -11 -28 -20 -32 -20 -4 0 -21 -10 -38
-22 -33 -24 -59 -40 -92 -58 -11 -6 -33 -19 -50 -30 -16 -11 -40 -24 -52 -29
-12 -6 -41 -23 -65 -38 -65 -41 -81 -51 -105 -62 -12 -6 -41 -23 -65 -38 -24
-15 -54 -33 -68 -40 -14 -7 -43 -24 -65 -38 -22 -14 -54 -32 -71 -40 l-30 -16
-34 14 -33 14 189 98 c104 54 207 108 229 120 22 13 72 40 110 60 111 59 190
102 275 150 43 25 60 39 60 52 0 17 -18 16 -50 -1z m-961 -542 c47 -60 -44
-214 -127 -214 -27 0 -62 46 -62 81 l0 27 33 44 c64 84 121 106 156 62z m356
-290 c33 -36 31 -50 -9 -90 l-34 -34 -25 0 c-39 0 -56 10 -73 41 l-15 29 11
19 c16 30 62 60 93 61 l28 0 24 -26z m-241 -146 l10 -16 -13 -16 -13 -16 -19
11 c-22 11 -24 30 -7 47 15 15 28 11 42 -10z m344 -105 c-2 -9 -11 -21 -20
-27 l-18 -11 -17 17 -17 17 18 20 19 20 19 -10 c11 -6 18 -17 16 -26z m-168
-58 l12 -15 -12 -15 c-25 -30 -61 -7 -46 30 3 8 12 15 19 15 8 0 20 -7 27 -15z
m24 -248 l11 -18 -20 -15 -19 -14 -20 19 -19 20 13 16 c16 19 39 16 54 -8z" />
  </g>
  <g transform="translate(0.000000,512.000000) scale(0.100000,-0.100000)" fill="#df5e13" stroke="none">
    <path d="M604 1935 c-4 -8 -3 -22 0 -31 l6 -15 17 3 18 3 3 28 3 27 -21 0
c-11 0 -23 -7 -26 -15z" />
    <path d="M400 1860 l0 -31 33 3 32 3 0 25 0 25 -32 3 -33 3 0 -31z" />
    <path d="M550 1795 l-12 -15 6 -26 7 -25 27 3 27 3 3 23 c6 43 -33 68 -58 37z" />
    <path d="M362 1748 l-22 -22 0 12 c0 7 -8 12 -19 12 l-18 0 -24 -77 -23 -78 0
-105 0 -105 21 -70 c13 -38 39 -99 60 -134 l38 -63 67 -64 67 -63 73 -34 c84
-40 134 -53 233 -62 l70 -6 77 15 c43 8 98 24 123 35 l45 20 0 15 0 16 -20 0
c-17 0 -94 33 -109 46 -2 2 8 17 23 34 36 44 35 46 -49 125 -93 86 -86 85
-141 29 l-45 -47 -19 18 -20 18 21 15 20 14 -3 21 -3 22 -27 3 -26 3 -14 -20
-14 -19 -67 60 c-73 65 -80 78 -42 78 l25 0 0 30 0 30 -29 0 -30 0 -3 -27 -3
-28 -47 60 -48 60 26 7 c38 10 53 26 64 69 l11 39 -11 40 c-6 21 -22 53 -36
70 l-26 30 -52 0 -52 0 -22 -22z" />
    <path d="M703 1514 c-3 -9 1 -31 10 -50 l17 -34 20 0 20 0 0 15 c0 51 -53 106
-67 69z" />
    <path d="M1080 1030 l0 -30 30 0 30 0 0 30 0 30 -30 0 -30 0 0 -30z" />
  </g>
  <g transform="translate(0.000000,512.000000) scale(0.100000,-0.100000)" fill="#e68120" stroke="none">
    <path d="M980 2241 c-28 -9 -418 -206 -437 -221 -7 -6 -17 -10 -23 -10 -5 0
-10 -4 -10 -9 0 -5 -9 -13 -20 -16 -11 -3 -20 -11 -20 -16 0 -5 -16 -23 -35
-40 -19 -17 -35 -36 -35 -43 0 -6 -8 -16 -18 -22 -9 -6 -30 -34 -45 -63 l-28
-51 15 -16 c9 -8 16 -20 16 -25 0 -5 5 -9 10 -9 6 0 10 6 10 13 0 8 8 21 18
30 l19 17 40 0 41 0 26 -30 c14 -17 30 -46 35 -65 l9 -35 -9 -35 c-11 -38 -42
-65 -76 -65 -13 0 -23 -3 -23 -7 0 -27 264 -309 273 -292 20 36 27 44 43 44
l19 0 0 -15 c0 -8 -10 -19 -22 -25 -30 -13 -29 -18 8 -49 38 -33 41 -32 63 4
9 17 28 38 42 46 31 21 30 23 -7 70 -17 22 -42 58 -56 82 l-25 43 16 18 c20
21 21 61 3 86 l-14 18 -30 -6 -31 -6 -15 42 c-27 71 -46 149 -52 207 -9 81
-15 102 -32 115 l-16 12 7 11 c10 17 26 15 26 -3 0 -8 5 -15 10 -15 13 0 13
16 -1 38 l-11 18 9 43 8 44 45 13 c25 7 46 13 48 13 15 -1 292 149 292 159 0
13 -22 14 -60 3z m-525 -381 l0 -15 -22 -3 -23 -3 0 21 0 21 23 -3 22 -3 0
-15z m142 -104 c-4 -9 -13 -16 -21 -16 -19 0 -29 30 -15 47 l12 14 15 -15 15
-14 -6 -16z m163 -308 c0 -5 -4 -8 -10 -8 -14 0 -42 59 -34 72 l7 11 18 -34
c10 -19 18 -37 19 -41z m-150 -28 l0 -20 -20 0 -20 0 0 20 0 20 20 0 20 0 0
-20z" />
    <path d="M1130 2233 c-8 -2 -72 -32 -142 -66 l-128 -61 0 -13 c0 -7 5 -13 12
-13 24 0 298 135 298 148 0 12 -13 14 -40 5z" />
    <path d="M1083 2143 c-31 -15 -45 -43 -23 -43 21 0 80 35 80 47 0 17 -17 16
-57 -4z" />
    <path d="M1240 2140 c0 -5 -6 -10 -14 -10 -8 0 -21 -6 -28 -13 -7 -7 -34 -23
-60 -36 -43 -21 -65 -51 -37 -51 12 0 86 38 106 55 7 6 19 16 27 23 8 6 20 12
26 12 5 0 10 7 10 15 0 8 -7 15 -15 15 -8 0 -15 -4 -15 -10z" />
    <path d="M1334 2107 c-139 -78 -164 -93 -164 -104 0 -30 193 68 207 105 9 22
-2 22 -43 -1z" />
    <path d="M819 2007 c-18 -12 -48 -42 -66 -65 l-33 -44 0 -37 0 -38 21 -27 20
-26 31 0 c45 0 81 27 122 89 l36 56 0 31 0 31 -21 27 -20 26 -28 0 c-16 0 -43
-10 -62 -23z" />
    <path d="M1473 1983 c-15 -5 -18 -33 -4 -33 21 0 41 13 41 26 0 14 -14 17 -37
7z" />
    <path d="M1300 1960 c0 -5 -9 -10 -20 -10 l-20 0 0 -15 0 -15 20 0 c11 0 20 5
20 10 0 6 7 10 15 10 8 0 15 7 15 15 0 8 -7 15 -15 15 -8 0 -15 -4 -15 -10z" />
    <path d="M1628 1916 c-23 -17 -23 -36 1 -36 22 0 45 25 36 40 -8 13 -16 12
-37 -4z" />
    <path d="M1064 1876 c-8 -21 3 -36 27 -36 l20 0 -3 22 -3 23 -18 3 -17 3 -6
-15z" />
    <path d="M1350 1880 c0 -5 -7 -10 -15 -10 -18 0 -19 -9 0 -33 l14 -19 20 7
c12 3 21 11 21 16 0 5 7 9 15 9 8 0 15 7 15 15 0 18 -12 19 -28 3 l-12 -12 0
17 c0 9 -7 17 -15 17 -8 0 -15 -4 -15 -10z" />
    <path d="M980 1805 c-7 -8 -9 -22 -6 -31 l6 -15 17 3 18 3 3 21 3 21 -15 6
c-8 3 -20 -1 -26 -8z" />
    <path d="M1615 1795 c-11 -13 -26 -24 -32 -25 -7 0 -13 -4 -13 -9 0 -5 -9 -11
-20 -14 -23 -6 -27 -37 -5 -37 9 0 18 7 21 15 4 8 12 15 20 15 8 0 14 7 14 15
0 8 7 15 15 15 8 0 15 5 15 10 0 6 7 10 15 10 8 0 15 7 15 15 0 23 -23 18 -45
-10z" />
    <path d="M1340 1771 c0 -20 25 -35 41 -25 5 3 9 0 9 -5 0 -16 26 -13 44 4 8 8
19 15 25 15 6 0 11 7 11 15 0 16 -26 21 -32 6 -1 -4 -13 -12 -26 -15 l-22 -7
-6 15 c-3 9 -15 16 -25 16 l-19 0 0 -19z" />
    <path d="M1205 1742 c-32 -6 -84 -51 -91 -76 l-6 -24 16 -30 15 -30 28 -9 28
-10 32 9 c114 30 93 194 -22 170z" />
    <path d="M1483 1697 c-4 -8 -16 -16 -25 -20 -10 -3 -18 -13 -18 -22 0 -19 29
-20 36 -1 3 8 14 16 25 19 22 6 26 37 4 37 -7 0 -18 -6 -22 -13z" />
    <path d="M1582 1688 c-16 -16 -15 -38 1 -38 7 0 18 5 25 12 16 16 15 38 -1 38
-7 0 -18 -5 -25 -12z" />
    <path d="M844 1635 c-8 -21 10 -39 31 -31 l16 6 -3 17 c-2 10 -11 19 -21 21
l-17 3 -6 -16z" />
    <path d="M1592 1598 c-16 -16 -15 -38 1 -38 7 0 18 5 25 12 16 16 15 38 -1 38
-7 0 -18 -5 -25 -12z" />
    <path d="M982 1578 c-7 -7 -12 -22 -12 -35 l0 -22 19 -11 c29 -15 39 -13 57
15 l17 26 -18 19 c-20 23 -45 26 -63 8z" />
    <path d="M1457 1583 c-13 -12 -7 -23 13 -23 l20 0 0 15 c0 15 -21 21 -33 8z" />
    <path d="M1622 1548 c-12 -12 -17 -38 -6 -38 16 0 44 23 44 35 0 18 -21 20
-38 3z" />
    <path d="M1523 1535 c-3 -9 -3 -18 0 -22 10 -10 37 6 37 22 0 20 -29 20 -37 0z" />
    <path d="M1317 1482 c-22 -24 -21 -45 3 -67 l19 -18 26 17 25 16 0 25 0 24
-19 11 c-27 14 -35 13 -54 -8z" />
    <path d="M1463 1485 c-3 -9 -3 -18 0 -22 10 -10 37 6 37 22 0 20 -29 20 -37 0z" />
    <path d="M1533 1465 c-3 -9 -3 -18 0 -22 10 -10 37 6 37 22 0 20 -29 20 -37 0z" />
    <path d="M1172 1423 c-7 -2 -17 -13 -22 -24 l-11 -19 11 -20 11 -20 22 0 c45
0 62 43 29 73 -20 18 -20 18 -40 10z" />
    <path d="M906 1405 c-3 -8 2 -22 11 -30 l16 -16 15 15 15 14 -6 16 c-8 20 -43
21 -51 1z" />
    <path d="M918 1273 c-32 -8 -19 -30 53 -95 l72 -64 -32 -36 c-17 -20 -31 -38
-31 -42 0 -10 98 -56 120 -56 32 0 15 -17 -38 -36 -26 -9 -51 -22 -57 -27
l-10 -10 30 7 c62 14 210 97 194 109 -2 2 -29 16 -60 30 -31 15 -69 37 -83 48
l-27 21 6 29 7 29 -12 35 c-18 56 -64 76 -132 58z m212 -243 l0 -20 -20 0 -20
0 0 20 0 20 20 0 20 0 0 -20z" />
    <path d="M1284 1265 c-8 -21 10 -39 31 -31 l16 6 -3 17 c-2 10 -11 19 -21 21
l-17 3 -6 -16z" />
    <path d="M1413 1245 c-3 -9 -3 -18 0 -22 10 -10 37 6 37 22 0 20 -29 20 -37 0z" />
    <path d="M1356 1184 c-8 -21 -3 -26 18 -18 9 3 16 12 16 20 0 19 -26 18 -34
-2z" />
    <path d="M1172 1168 c-18 -18 -15 -43 8 -63 l20 -18 25 11 25 12 0 23 c0 29
-17 47 -45 47 -12 0 -26 -5 -33 -12z" />
    <path d="M1330 1130 l0 -20 15 0 15 0 0 20 0 20 -15 0 -15 0 0 -20z" />
  </g>
  <g transform="translate(0.000000,512.000000) scale(0.100000,-0.100000)" fill="#2e4692" stroke="none">
    <path d="M4874 4261 c5 -8 -42 -36 -56 -33 -5 1 -8 -3 -8 -9 0 -5 -5 -7 -10
-4 -6 3 -13 -1 -16 -9 l-6 -16 -18 10 -19 10 -35 -21 c-20 -12 -34 -25 -31
-29 3 -5 -4 -14 -15 -20 l-21 -11 7 -11 7 -11 -12 7 -12 8 -26 -17 -26 -17 -7
12 -7 12 -32 -16 c-17 -9 -31 -21 -31 -27 0 -6 -4 -7 -10 -4 -5 3 -10 1 -10
-5 0 -6 -4 -8 -10 -5 -5 3 -10 1 -10 -5 0 -6 -4 -8 -10 -5 -5 3 -10 2 -10 -4
0 -5 -52 -38 -115 -73 l-114 -63 -1 -15 0 -15 8 10 c6 9 338 205 347 205 2 0
2 -9 0 -21 l-4 -20 12 4 c7 3 11 10 9 16 l-2 12 10 -6 c6 -4 26 3 45 15 l35
22 -6 10 -7 11 11 -7 c16 -10 45 8 48 28 l2 17 -21 -7 c-26 -8 -21 -2 10 15
l22 11 -4 -21 -4 -20 12 4 c7 2 11 13 11 25 -1 12 3 19 7 16 5 -3 7 -10 4 -15
-12 -18 11 -8 77 35 37 24 64 46 61 50 -9 9 -25 7 -19 -3z" />
    <path d="M4797 4179 l-69 -41 10 -10 11 -11 65 49 c36 26 66 49 66 51 0 9 -22
-1 -83 -38z" />
    <path d="M4575 4040 c-135 -86 -163 -101 -150 -80 9 15 -9 12 -31 -6 l-19 -15
25 6 25 6 -19 -15 c-22 -18 -40 -21 -31 -6 3 6 3 10 -2 10 -16 0 -267 -157
-277 -173 -15 -23 1 -34 27 -17 94 60 450 270 453 267 7 -6 -374 -264 -463
-313 -55 -30 -63 -41 -38 -50 l15 -6 87 53 c122 72 206 130 199 136 -3 3 -19
-5 -36 -17 -17 -12 -33 -20 -36 -18 -4 5 70 58 80 58 6 0 2 -23 -7 -37 l-8
-13 12 0 12 0 -18 -20 c-10 -11 -22 -20 -28 -20 l-9 0 12 15 12 15 -10 0 c-5
0 -15 -7 -22 -15 l-12 -15 13 0 c16 0 -60 -69 -76 -69 -5 -1 8 15 30 34 78 67
24 34 -82 -50 -100 -79 -127 -110 -96 -110 7 0 108 74 224 165 116 91 215 165
220 165 5 0 16 10 24 23 9 12 19 20 23 18 10 -6 98 71 90 79 -3 4 -36 -17 -72
-45 l-66 -52 7 -10 6 -11 -12 7 -11 7 -51 -42 c-27 -23 -52 -39 -55 -36 -3 3
26 30 65 61 72 58 94 83 44 51 -120 -78 -159 -115 -121 -115 l10 0 -12 -15
c-7 -8 -17 -15 -22 -15 l-10 0 13 17 c16 18 16 23 0 33 l-11 6 175 123 c149
104 192 142 157 141 -4 -1 -70 -41 -147 -90z m130 62 c-29 -25 -118 -83 -121
-79 -3 2 24 23 58 45 59 39 84 53 63 34z m-340 -190 c-21 -18 -257 -154 -260
-150 -5 5 246 158 260 158 l9 0 -9 -8z m-65 -116 c0 -5 -157 -104 -200 -126
-47 -24 -9 4 88 66 92 59 112 70 112 60z m-80 -126 c-43 -37 -129 -97 -114
-82 22 25 130 110 139 111 6 0 -6 -13 -25 -29z" />
    <path d="M4531 4061 c-15 -10 -25 -41 -13 -41 15 0 36 19 38 34 3 18 -4 20
-25 7z" />
    <path d="M4362 3963 c-73 -42 -130 -78 -127 -81 2 -2 45 19 95 47 50 28 95 49
101 46 14 -9 76 32 76 50 0 21 3 22 -145 -62z" />
    <path d="M3646 3544 c-369 -203 -652 -373 -993 -596 -133 -87 -247 -158 -253
-158 -52 0 162 153 530 380 91 56 164 106 162 111 -1 6 2 8 7 4 12 -7 121 53
121 66 l0 9 -32 -14 c-103 -43 -728 -350 -728 -357 0 -4 119 50 263 121 377
183 408 195 217 80 -169 -102 -559 -363 -565 -378 -24 -63 32 -39 256 109 288
189 903 558 914 547 3 -2 -289 -189 -648 -415 l-652 -410 -3 -18 c-2 -9 1 -22
7 -28 l12 -12 -3 24 -3 25 790 497 c435 274 797 502 805 507 8 5 13 12 10 15
-3 4 -100 -45 -214 -109z m14 -8 c0 -7 -102 -67 -107 -63 -2 3 20 18 49 35 58
34 58 34 58 28z" />
    <path d="M3635 3424 c-110 -74 -199 -138 -198 -143 1 -5 -5 -8 -14 -7 l-16 1
-3 -18 c-1 -10 1 -17 6 -15 19 8 439 304 439 311 2 15 -18 3 -214 -129z" />
    <path d="M3800 3424 c-63 -47 -114 -89 -113 -93 1 -5 -5 -15 -15 -23 l-17 -13
14 18 c7 9 10 17 5 17 -16 -1 -759 -565 -760 -578 -1 -7 -3 -14 -4 -17 -1 -3
-3 -11 -4 -17 -1 -7 -8 -12 -15 -10 -17 3 -42 -18 -35 -29 3 -5 -1 -6 -9 -3
-8 3 -20 -2 -27 -11 l-12 -15 28 2 c35 2 56 16 47 31 l-6 10 12 -7 12 -8 19
17 18 16 -3 25 -2 24 241 183 c286 218 474 357 482 357 3 0 -48 -44 -113 -97
-106 -88 -250 -209 -723 -606 -153 -129 -154 -130 -241 -222 -31 -33 -80 -80
-108 -104 l-53 -43 11 -11 10 -10 25 17 c14 9 80 61 146 117 l121 100 11 -7
11 -7 -6 10 -7 10 96 83 c52 45 103 83 112 85 9 1 16 8 15 13 l-3 11 14 -5 15
-6 -6 -14 c-5 -13 -22 -18 -49 -15 -6 1 -17 -6 -24 -14 l-12 -15 13 0 14 0
-24 -19 c-14 -10 -30 -17 -36 -15 -6 3 -20 -4 -30 -16 l-18 -20 14 0 14 -1
-18 -14 c-11 -7 -24 -12 -31 -9 -7 3 -21 -5 -32 -17 l-19 -21 20 3 c11 2 25 0
32 -4 l11 -7 121 106 c119 105 135 124 107 124 -20 0 -29 17 -15 26 l12 7 -8
-13 -8 -13 12 7 c6 4 9 12 6 17 l-6 9 15 -6 c8 -3 16 -12 18 -20 l3 -15 38 32
c21 17 36 34 33 37 -3 3 -14 -2 -25 -12 l-18 -17 -12 14 -11 14 267 224 c506
424 612 506 316 243 -425 -376 -503 -446 -503 -451 0 -10 40 25 420 360 451
399 446 394 438 402 -10 11 -423 -327 -1226 -1005 -134 -113 -248 -207 -254
-209 -14 -5 99 117 167 181 84 78 881 745 1063 888 155 123 186 151 165 149
-5 0 -60 -38 -123 -85z m-1315 -1169 c-22 -19 -44 -35 -50 -35 -5 0 8 16 30
35 22 19 45 34 50 34 6 0 -8 -15 -30 -34z" />
    <path d="M3379 3255 c-1 -3 -2 -9 -3 -14 0 -5 -5 -13 -10 -18 l-9 -8 7 13 c11
19 -2 14 -50 -19 -24 -16 -42 -34 -39 -39 5 -8 -254 -194 -261 -187 -2 2 55
43 126 92 71 49 128 90 126 92 -2 3 -150 -94 -328 -214 -177 -120 -366 -244
-418 -275 l-94 -58 -10 10 -10 10 14 13 c8 8 76 52 151 100 l136 87 0 15 c0 8
-2 15 -5 15 -11 0 -422 -264 -418 -268 3 -2 27 10 54 27 57 37 62 37 62 11 0
-11 7 -23 15 -26 l14 -6 63 38 c35 21 150 95 257 166 106 71 195 127 198 125
6 -7 -620 -446 -668 -469 -22 -10 -37 -23 -34 -28 l6 -10 -14 6 c-8 3 -18 1
-21 -4 -7 -13 19 -19 69 -17 l40 1 238 168 c237 167 322 217 165 96 -96 -74
-415 -332 -472 -382 l-38 -33 -3 -29 -4 -29 12 12 c6 6 17 11 24 11 7 0 100
69 206 153 l192 154 37 -3 36 -3 12 14 12 15 -28 -2 c-16 -1 -36 -6 -44 -12
l-15 -11 18 22 18 21 39 -4 38 -3 12 14 12 15 -28 -2 c-16 -1 -36 -6 -44 -11
-8 -6 3 6 25 26 22 20 46 34 53 32 7 -3 11 -1 7 4 -3 5 13 23 35 41 l40 31 12
-7 13 -7 -7 8 c-4 4 -3 14 3 22 40 48 -37 -10 -426 -321 -110 -87 -206 -164
-213 -169 l-13 -10 -10 10 -11 11 74 63 c80 69 394 320 556 444 56 43 100 80
97 83 -3 3 0 11 6 19 l11 13 -10 0 c-12 0 -34 -25 -27 -32 3 -3 -22 -26 -56
-52 -33 -26 -63 -45 -66 -43 -2 3 23 24 57 47 33 24 58 45 56 47 -2 3 -139
-90 -304 -206 -165 -116 -307 -214 -316 -217 l-16 -6 0 18 1 19 504 354 c278
194 503 357 500 361 -5 9 46 50 62 50 4 0 -7 -10 -25 -21 -18 -12 -31 -24 -28
-26 8 -9 90 56 92 72 2 13 -14 23 -17 10z m-689 -409 c0 -2 -55 -39 -122 -82
-163 -102 -175 -110 -163 -97 18 20 285 187 285 179z" />
    <path d="M2905 3000 l-189 -118 -2 -16 c-3 -24 -6 -25 194 111 216 146 197
132 191 138 -3 2 -90 -49 -194 -115z" />
    <path d="M3140 3005 c-109 -77 -161 -125 -134 -125 4 0 245 181 268 202 47 41
-26 -1 -134 -77z" />
    <path d="M2335 2955 c-22 -14 -36 -25 -32 -25 11 0 87 39 87 45 0 10 -16 4
-55 -20z" />
    <path d="M2444 2952 l-47 -24 14 -10 14 -10 -18 6 -18 6 -40 -20 c-21 -11 -39
-22 -39 -25 0 -10 78 3 109 19 l34 18 -12 8 -13 7 17 7 c9 3 21 4 26 1 8 -5
89 31 89 39 0 13 -76 -2 -116 -22z" />
    <path d="M2241 2841 c-34 -16 -39 -26 -15 -35 l15 -6 50 25 c27 14 49 27 49
29 0 10 -70 1 -99 -13z" />
    <path d="M2145 2773 l-29 -16 23 -8 c25 -10 45 -3 36 12 l-6 9 17 -7 17 -6 -5
13 c-6 20 -20 21 -53 3z" />
    <path d="M2026 2759 l-39 -21 14 -10 14 -10 -18 6 -18 6 -41 -21 -41 -21 14
-10 14 -10 -18 6 -18 6 -91 -46 -91 -46 12 -7 12 -8 -26 -11 c-15 -7 -30 -10
-35 -7 -12 7 -110 -42 -110 -55 0 -24 28 -16 141 41 l122 61 -12 7 -12 8 26
11 c15 7 31 10 35 7 5 -3 28 4 51 16 l42 21 -12 8 -13 7 17 7 c9 3 21 4 26 1
4 -3 23 2 40 11 l32 16 -14 10 -14 9 21 -5 20 -6 19 13 18 14 -7 11 c-9 16
-14 15 -60 -9z" />
    <path d="M2286 2772 c-2 -4 -1 -14 4 -22 l9 -15 12 12 c6 6 8 16 5 22 -8 13
-23 14 -30 3z" />
    <path d="M2085 2737 l-18 -14 23 -6 c13 -3 33 -1 44 5 l21 11 -20 8 c-28 11
-29 11 -50 -4z" />
    <path d="M1855 2705 c-22 -14 -36 -25 -32 -25 11 0 87 39 87 45 0 10 -16 4
-55 -20z" />
    <path d="M2004 2692 l-27 -14 14 -10 14 -10 -18 6 -18 6 -51 -26 -51 -26 12
-7 12 -8 -26 -11 c-15 -7 -30 -10 -35 -7 -5 3 -113 -46 -240 -110 -127 -64
-234 -114 -238 -111 -4 3 -9 -6 -10 -20 -1 -13 3 -24 8 -24 6 0 10 4 10 10 0
5 77 48 170 95 94 47 170 81 170 75 0 -5 -7 -10 -15 -10 -8 0 -15 -4 -15 -8 0
-4 -16 -14 -35 -21 -19 -7 -35 -16 -35 -21 0 -4 -11 -11 -25 -14 -14 -4 -25
-11 -25 -16 0 -16 8 -13 107 46 l95 57 -12 7 -12 7 17 7 c9 3 21 4 25 1 5 -3
46 13 91 36 l82 41 -12 8 -13 7 17 7 c9 3 21 4 26 1 4 -3 23 2 40 11 l32 16
-12 8 -13 7 16 6 c9 4 22 4 29 1 7 -2 21 2 32 10 l20 14 -37 -1 c-20 0 -49 -7
-64 -15z" />
    <path d="M2126 2641 c-4 -5 -3 -11 1 -14 5 -2 2 -2 -5 0 -7 1 -23 -2 -35 -9
l-21 -11 23 -8 22 -9 30 15 c16 9 29 22 29 30 l0 15 -19 0 c-11 0 -22 -4 -25
-9z" />
    <path d="M2763 2618 l-17 -19 24 9 c14 5 30 7 36 5 6 -2 16 3 23 11 l12 15
-30 -1 -31 -1 -17 -19z" />
    <path d="M2046 2592 c-2 -4 -1 -14 3 -21 l8 -13 24 13 24 12 -20 8 c-27 10
-33 10 -39 1z" />
    <path d="M2291 2577 c-6 -8 -8 -17 -4 -21 4 -4 0 -4 -10 0 l-17 6 0 -16 c0
-21 22 -20 50 2 l23 19 -7 11 c-9 16 -21 15 -35 -1z" />
    <path d="M2019 2573 c-1 -5 -1 -12 0 -16 1 -5 -3 -6 -8 -3 -5 4 -12 2 -15 -3
-10 -16 12 -23 33 -11 l20 10 -5 15 c-6 16 -23 21 -25 8z" />
    <path d="M2157 2544 c-15 -8 -25 -19 -22 -24 4 -6 1 -10 -5 -10 -6 0 -8 -4 -5
-10 l6 -9 44 21 c45 22 60 48 28 48 -10 -1 -31 -8 -46 -16z" />
    <path d="M2616 2501 l-18 -20 31 1 c17 1 36 7 42 15 l11 13 -10 0 c-6 0 -17 2
-24 5 l-14 6 -18 -20z" />
    <path d="M1773 2483 c-29 -15 -44 -33 -27 -33 12 0 64 34 64 42 0 10 2 10 -37
-9z" />
    <path d="M1837 2483 c-11 -10 -8 -25 3 -18 l10 6 0 -15 c0 -9 2 -16 5 -16 12
0 55 33 55 42 0 6 -11 3 -25 -6 l-25 -16 0 15 c0 16 -12 20 -23 8z" />
    <path d="M1375 2455 c-22 -14 -36 -25 -32 -25 11 0 87 39 87 45 0 10 -16 4
-55 -20z" />
    <path d="M2554 2449 l-16 -18 31 1 31 1 16 18 16 18 -31 -1 -31 -1 -16 -18z" />
    <path d="M1858 2423 c-21 -14 -38 -30 -38 -36 l0 -9 23 14 c12 8 32 21 45 29
21 13 30 30 15 28 -5 0 -25 -12 -45 -26z" />
    <path d="M1663 2423 c-29 -14 -44 -33 -28 -33 14 0 65 32 65 40 0 12 3 12 -37
-7z" />
    <path d="M1797 2422 c-26 -16 -36 -32 -19 -32 12 1 57 38 52 44 -3 2 -18 -3
-33 -12z" />
    <path d="M2067 2422 c-26 -16 -36 -32 -19 -32 12 1 57 38 52 44 -3 2 -18 -3
-33 -12z" />
    <path d="M2745 2420 c-3 -5 -4 -14 -1 -18 3 -5 -9 -22 -26 -38 -18 -16 -26
-21 -19 -11 7 9 10 17 6 17 -4 0 -2 7 5 15 23 28 0 29 -27 2 l-27 -27 12 -12
12 -12 -28 -30 c-40 -43 -7 -21 70 47 37 33 65 63 62 68 -7 12 -31 11 -39 -1z" />
    <path d="M2494 2399 l-16 -18 31 1 31 1 16 18 16 18 -31 -1 -31 -1 -16 -18z" />
    <path d="M2155 2391 l-6 -11 15 0 c8 0 21 -9 29 -21 l15 -20 6 10 c4 5 2 12
-4 16 -6 4 -8 11 -5 16 4 5 2 9 -4 9 -5 0 -16 3 -24 6 -8 3 -18 1 -22 -5z" />
    <path d="M1488 2377 c-7 -7 -28 -19 -45 -26 -29 -12 -45 -31 -27 -31 9 0 114
61 114 66 0 9 -29 3 -42 -9z" />
    <path d="M1638 2374 c-41 -22 -34 -37 7 -17 19 9 35 20 35 25 0 11 -11 9 -42
-8z" />
    <path d="M1997 2372 c-26 -16 -36 -32 -19 -32 12 1 57 38 52 44 -3 2 -18 -3
-33 -12z" />
    <path d="M2086 2348 l-49 -31 22 -9 c12 -4 20 -12 17 -17 -7 -11 33 -23 48
-14 l10 6 -19 7 c-10 4 -19 14 -21 23 -1 10 2 15 7 11 5 -3 7 -9 4 -14 -3 -4
5 -10 16 -13 l22 -6 23 16 24 15 -10 18 c-5 9 -6 20 -3 24 3 3 1 6 -5 6 -5 0
-16 2 -24 4 -7 3 -35 -9 -62 -26z m71 -16 l3 -23 -16 3 -17 3 -4 23 -3 23 16
-3 17 -3 4 -23z" />
    <path d="M1533 2353 c-29 -14 -44 -33 -28 -33 14 0 65 32 65 40 0 12 3 12 -37
-7z" />
    <path d="M2424 2339 l-16 -18 31 1 31 1 16 18 16 18 -31 -1 -31 -1 -16 -18z" />
    <path d="M1106 2284 c-37 -19 -65 -38 -62 -41 8 -8 146 58 146 69 0 13 -11 9
-84 -28z" />
    <path d="M1508 2304 c-41 -22 -34 -37 7 -17 19 9 35 20 35 25 0 11 -11 9 -42
-8z" />
    <path d="M1850 2234 c-69 -46 -127 -89 -129 -95 l-4 -12 14 8 c8 5 48 31 89
59 41 27 69 42 62 33 -8 -9 -11 -20 -8 -25 3 -5 -31 -30 -74 -56 l-79 -48 -7
-20 c-7 -24 -2 -30 31 -32 l25 -1 -17 -12 c-26 -20 -8 -27 21 -8 25 17 38 44
14 29 l-11 -7 7 12 8 12 14 -12 c19 -16 19 -15 -26 -45 -22 -15 -40 -31 -40
-36 0 -11 43 14 77 45 l23 20 -16 18 -16 17 23 13 23 12 -23 8 -22 9 -21 -11
-21 -11 14 -10 14 -9 -22 6 -21 6 -7 -11 c-3 -5 -1 -10 6 -10 7 0 10 -3 6 -6
-3 -3 -13 -2 -21 3 l-16 9 95 59 96 58 -12 7 -11 8 11 7 c15 9 44 -2 37 -14
-7 -11 33 -23 48 -14 l10 6 -18 7 c-10 3 -17 10 -17 15 0 6 -13 15 -31 21
l-31 10 46 30 c42 26 59 45 40 43 -5 0 -64 -38 -133 -85z" />
    <path d="M1257 2284 c-27 -14 -46 -28 -43 -31 8 -8 106 38 106 49 0 12 -11 9
-63 -18z" />
    <path d="M1395 2300 c-3 -5 -3 -10 2 -10 4 -1 -9 -10 -29 -21 -21 -11 -38 -24
-38 -29 0 -14 5 -13 50 10 l39 20 -2 20 c-1 21 -12 26 -22 10z" />
    <path d="M2016 2302 c-3 -5 2 -12 12 -14 10 -3 19 -12 19 -21 0 -9 -4 -14 -9
-11 -5 3 -6 9 -3 14 8 13 -37 20 -59 8 l-20 -11 23 -9 c12 -4 26 -6 30 -4 4 3
8 -4 8 -15 l2 -20 -15 3 c-8 2 -14 7 -12 12 4 12 -41 28 -55 19 l-10 -6 22 -9
c12 -4 20 -12 17 -17 -3 -5 4 -11 15 -14 l21 -6 50 31 51 31 -22 9 -22 8 6 10
c3 5 2 10 -4 10 -5 0 -16 3 -24 6 -8 3 -18 1 -21 -4z" />
    <path d="M2365 2290 c-8 -9 -12 -20 -8 -24 4 -4 0 -4 -9 -1 -9 4 -19 2 -22 -3
-8 -14 36 -23 51 -11 7 6 11 16 10 22 -1 7 5 11 14 9 9 -1 22 4 28 12 l12 15
-30 -1 c-17 -1 -37 -9 -46 -18z" />
    <path d="M1657 2270 l-48 -31 -12 7 c-7 4 -9 4 -5 -1 8 -8 -20 -34 -37 -34 -5
0 -1 6 9 14 11 8 16 18 13 22 -10 9 -27 -9 -32 -35 l-4 -22 11 0 c15 0 68 33
68 42 0 4 6 8 14 8 8 0 21 6 28 14 8 7 24 17 36 20 12 4 22 12 22 17 0 15 -12
11 -63 -21z" />
    <path d="M1825 2253 c-51 -33 -49 -32 -43 -39 8 -7 88 45 88 57 0 12 -1 12
-45 -18z" />
    <path d="M1113 2244 c-24 -14 -43 -30 -43 -35 0 -14 20 -11 26 4 l4 13 45 -3
45 -3 0 10 c0 6 -7 10 -15 10 l-14 0 5 15 c8 21 -4 18 -53 -11z" />
    <path d="M2581 2244 c-23 -29 -27 -49 -11 -59 l10 -6 -6 14 -5 14 26 32 c15
17 22 31 17 31 -6 0 -20 -12 -31 -26z" />
    <path d="M1673 2234 c-60 -36 -54 -51 7 -17 27 15 50 31 50 36 0 12 -13 8 -57
-19z" />
    <path d="M1380 2230 c0 -5 -6 -10 -13 -10 -18 0 -53 -27 -45 -35 5 -6 88 42
88 51 0 2 -7 4 -15 4 -8 0 -15 -4 -15 -10z" />
    <path d="M1189 2197 l-44 -22 -3 -22 c-4 -26 1 -28 29 -13 24 13 25 31 2 24
-10 -3 0 5 22 17 68 37 63 51 -6 16z" />
    <path d="M2137 2202 c-26 -16 -36 -32 -19 -32 12 1 57 38 52 44 -3 2 -18 -3
-33 -12z" />
    <path d="M1453 2171 l-5 -19 -39 -17 c-21 -10 -39 -22 -39 -27 0 -11 7 -10 32
3 l20 11 -7 -12 -7 -12 21 11 c11 7 21 17 21 24 l0 12 9 -14 8 -13 27 17 c14
10 26 22 26 27 0 6 -12 3 -26 -7 l-27 -17 7 26 6 26 -11 0 c-6 0 -13 -8 -16
-19z" />
    <path d="M1593 2183 c-7 -2 -13 -11 -13 -19 l0 -14 19 0 19 0 -5 20 c-3 11 -6
20 -7 19 0 0 -7 -3 -13 -6z" />
    <path d="M1907 2184 c-3 -3 -3 -13 0 -21 l6 -16 -26 7 c-14 3 -28 2 -31 -3 -3
-5 3 -11 15 -14 l20 -5 36 21 36 21 -19 7 c-25 10 -29 10 -37 3z" />
    <path d="M2440 2150 c0 -5 -6 -7 -13 -4 -8 3 -20 -2 -27 -11 l-12 -15 33 3 34
2 3 18 c2 9 -1 17 -7 17 -6 0 -11 -4 -11 -10z" />
    <path d="M1280 2141 c0 -5 -11 -12 -24 -15 -14 -3 -26 -14 -28 -23 l-3 -18
-20 0 -20 0 0 -14 c0 -24 22 -24 47 1 13 13 29 22 36 20 l14 -3 5 20 c3 12 9
19 12 16 4 -2 8 2 8 10 0 8 -6 15 -14 15 -7 0 -13 -4 -13 -9z" />
    <path d="M1637 2132 c-26 -16 -36 -32 -19 -32 12 1 57 38 52 44 -3 2 -18 -3
-33 -12z" />
    <path d="M2010 2114 c-67 -45 -65 -43 -58 -50 8 -7 118 66 118 77 0 13 0 13
-60 -27z" />
    <path d="M2005 2074 c-60 -41 -112 -79 -114 -86 l-4 -12 30 20 c188 121 235
156 206 153 -5 0 -57 -34 -118 -75z" />
    <path d="M1073 2113 c-10 -10 -24 -18 -30 -19 -29 -2 -33 -5 -33 -19 0 -8 2
-15 4 -15 12 0 96 53 96 61 0 15 -19 10 -37 -8z" />
    <path d="M2188 2110 l-23 -19 34 2 c36 3 52 21 27 30 l-15 6 -23 -19z" />
    <path d="M2351 2097 l-11 -15 22 -5 23 -6 15 14 14 15 -11 0 c-6 0 -18 2 -26
5 -7 3 -19 0 -26 -8z" />
    <path d="M1088 2084 c-36 -19 -36 -34 -1 -28 35 7 43 12 43 30 0 17 -8 17 -42
-2z" />
    <path d="M1344 2088 c-4 -5 -2 -14 4 -20 l10 -10 21 11 c12 7 21 15 21 19 0
11 -49 11 -56 0z" />
    <path d="M1432 2083 c-6 -10 -18 -18 -28 -18 -9 0 -19 -6 -22 -14 l-5 -14 14
9 14 8 -14 -17 -13 -17 16 0 c9 0 16 5 16 10 0 6 7 10 15 10 8 0 15 5 15 10 0
6 7 10 16 10 l15 0 -3 17 c-4 24 -25 27 -36 6z" />
    <path d="M1520 2088 c0 -7 5 -20 10 -28 l9 -15 17 17 c9 9 13 21 10 27 -10 15
-46 14 -46 -1z" />
    <path d="M1603 2073 c-34 -23 -28 -37 7 -16 17 9 30 21 30 25 0 12 -12 9 -37
-9z" />
    <path d="M2145 2080 l-6 -10 18 -2 c10 0 24 -1 31 -1 l13 1 -11 -13 -11 -13
17 -6 c19 -7 44 10 44 29 l0 13 -22 -1 c-13 -1 -33 2 -45 6 l-21 8 -7 -11z" />
    <path d="M1292 2058 c-14 -14 -16 -38 -4 -38 12 0 32 23 32 37 0 16 -12 17
-28 1z" />
    <path d="M2111 2057 l-11 -15 22 -5 23 -6 15 14 14 15 -11 0 c-6 0 -18 2 -26
5 -7 3 -19 0 -26 -8z" />
    <path d="M2299 2054 l-10 -13 30 1 c17 1 36 7 42 14 l10 13 -30 -1 c-17 -1
-36 -7 -42 -14z" />
    <path d="M1140 2041 c-8 -6 -18 -7 -22 -5 -4 3 -8 1 -8 -5 0 -5 6 -11 13 -14
15 -5 47 10 47 23 0 12 -11 12 -30 1z" />
    <path d="M1242 2028 c-14 -14 -16 -38 -4 -38 12 0 32 23 32 37 0 16 -12 17
-28 1z" />
    <path d="M1690 2023 c-14 -9 -27 -18 -29 -19 -1 -1 0 -8 4 -14 l8 -12 8 13 9
14 0 -12 c0 -23 19 -14 35 17 l16 30 -14 0 c-7 0 -24 -8 -37 -17z" />
    <path d="M2151 2026 l-12 -14 17 -6 c21 -8 34 1 27 19 -7 19 -17 19 -32 1z" />
    <path d="M2250 2015 c-5 -6 -7 -15 -3 -19 4 -4 0 -4 -8 -1 l-16 6 -13 -16 -12
-15 28 2 c33 2 56 16 48 29 -3 5 1 6 9 3 8 -3 19 2 26 10 l12 15 -30 -1 c-17
-1 -36 -6 -41 -13z" />
    <path d="M1502 2008 c-16 -16 -15 -28 3 -28 8 0 15 2 15 4 0 2 3 11 6 20 7 19
-7 21 -24 4z" />
    <path d="M1825 1993 c-51 -33 -49 -32 -43 -39 8 -7 88 45 88 57 0 12 -1 12
-45 -18z" />
    <path d="M2027 1999 c-15 -11 -25 -25 -22 -30 l6 -9 -14 6 c-8 3 -18 1 -21 -4
-3 -5 4 -12 15 -15 l22 -6 24 16 24 16 -13 9 -13 9 21 -6 21 -5 13 15 12 15
-10 0 c-6 0 -16 2 -24 5 -7 2 -25 -5 -41 -16z" />
    <path d="M1283 1999 c-6 -6 -9 -17 -7 -24 3 -7 1 -16 -5 -20 l-11 -6 0 15 c0
9 -5 16 -10 16 -16 0 -24 -30 -12 -42 l10 -10 31 13 c17 8 31 17 31 21 0 5 7
8 15 8 8 0 15 5 15 10 0 14 -23 13 -38 -2 l-12 -12 0 12 c0 7 5 12 10 12 6 0
10 5 10 10 0 13 -13 13 -27 -1z" />
    <path d="M1552 1986 l-33 -24 -21 6 -21 5 6 -16 6 -17 -19 0 -20 0 0 15 c0 16
-12 20 -23 8 -4 -3 -2 -12 4 -19 6 -7 8 -18 4 -24 -9 -15 -35 -12 -35 5 0 20
-6 19 -41 -6 -28 -20 -39 -49 -19 -49 6 0 10 -7 10 -16 l0 -16 15 6 15 5 0
-14 c0 -8 7 -15 15 -15 8 0 15 7 15 15 0 8 -4 15 -10 15 -5 0 -10 7 -10 16 l0
16 -15 -6 c-8 -3 -15 -1 -15 5 0 5 7 12 16 16 l16 6 7 -12 8 -12 25 6 26 7 6
-11 c10 -16 26 -14 26 3 0 8 -8 17 -17 19 l-18 5 17 1 c9 0 24 -6 32 -14 l16
-16 20 11 c28 15 23 39 -10 54 -8 3 -3 4 13 1 l27 -5 25 16 25 16 0 -10 c0 -6
-6 -12 -12 -15 -7 -2 -10 -8 -6 -12 10 -11 58 22 58 40 l0 15 -42 -5 c-24 -2
-35 -2 -25 1 20 6 23 24 5 24 -7 -1 -28 -12 -46 -24z" />
    <path d="M2075 1970 l-50 -40 3 -16 3 -16 -20 7 c-22 7 -33 -5 -21 -24 l8 -14
35 27 36 27 -6 15 -5 14 23 -2 24 -3 -3 19 -4 19 18 -7 17 -6 14 11 14 12 -13
8 c-18 12 -17 12 -73 -31z" />
    <path d="M1918 1974 l-27 -14 5 -15 c8 -19 14 -19 42 4 40 35 27 51 -20 25z" />
    <path d="M1350 1960 c0 -5 -7 -10 -15 -10 -8 0 -15 -4 -15 -10 0 -5 -7 -10
-15 -10 -8 0 -15 -7 -15 -15 0 -20 4 -19 50 11 42 28 51 44 25 44 -8 0 -15 -4
-15 -10z" />
    <path d="M2171 1956 l-12 -15 31 1 c27 1 57 18 31 18 -5 0 -16 2 -24 5 -7 3
-19 -1 -26 -9z" />
    <path d="M1765 1915 c-38 -25 -73 -45 -78 -45 -4 0 -6 -4 -3 -9 3 -5 -8 -11
-24 -15 -27 -5 -50 -30 -38 -41 6 -7 58 18 58 28 0 4 5 7 11 7 6 0 17 7 26 15
8 8 19 13 24 10 11 -7 49 12 49 25 0 5 -8 7 -17 3 l-18 -6 20 16 20 15 7 -11
7 -12 13 13 12 12 -13 0 -12 0 7 11 7 11 6 -9 c17 -27 74 -24 64 3 l-5 15 -20
-7 -20 -6 -7 11 -7 11 -69 -45z" />
    <path d="M2132 1927 c-7 -8 -9 -17 -5 -21 4 -4 0 -4 -9 -1 -9 4 -19 2 -22 -3
-8 -14 36 -23 51 -10 7 5 10 14 7 19 -3 5 1 6 9 3 8 -3 18 -1 22 5 3 6 2 11
-4 11 -5 0 -16 2 -24 5 -7 3 -19 0 -25 -8z" />
    <path d="M1697 1912 c-26 -16 -36 -32 -19 -32 12 1 57 38 52 44 -3 2 -18 -3
-33 -12z" />
    <path d="M1565 1887 c-11 -7 -24 -18 -28 -25 -5 -7 -13 -10 -18 -6 -6 3 -27
-10 -46 -30 l-37 -36 -7 12 -7 11 -27 -17 c-14 -9 -24 -23 -22 -29 5 -15 47
-22 47 -8 0 6 5 11 11 11 l11 0 -12 -15 c-7 -9 -10 -18 -7 -22 8 -8 57 25 57
38 l0 11 -15 -6 c-8 -3 -15 -1 -15 4 0 6 7 10 15 10 8 0 15 5 15 10 0 6 7 10
15 10 8 0 15 5 15 10 0 6 7 10 15 10 8 0 15 -7 15 -15 0 -22 17 -18 30 5 6 11
15 18 21 15 5 -4 9 -2 9 4 0 5 10 11 21 13 23 3 48 33 37 43 -3 4 -16 0 -28
-7 l-23 -13 -4 13 c-6 15 -12 14 -38 -1z" />
    <path d="M1838 1868 l-28 -23 9 -14 9 -14 11 7 c6 4 9 11 6 16 -3 4 3 7 13 6
l17 -1 -2 12 -3 12 14 -5 c8 -3 17 -1 21 5 3 6 2 11 -4 11 -5 0 -15 2 -23 5
-7 3 -25 -5 -40 -17z" />
    <path d="M1425 1860 c-9 -28 -2 -34 25 -20 23 13 22 33 -2 38 l-16 3 -7 -21z" />
    <path d="M2055 1870 c-3 -4 5 -10 18 -14 l22 -5 14 14 14 14 -32 -1 c-17 -1
-34 -4 -36 -8z" />
    <path d="M1773 1853 c-21 -14 -34 -41 -14 -29 5 3 11 -4 14 -15 l6 -20 20 10
20 11 -6 16 -6 15 -15 -6 -16 -6 19 21 c21 24 10 26 -22 3z" />
    <path d="M2021 1847 l-11 -15 22 -5 23 -6 15 14 14 15 -11 0 c-6 0 -18 2 -26
5 -7 3 -19 0 -26 -8z" />
    <path d="M1909 1843 c-1 -5 -1 -12 0 -16 1 -5 -3 -6 -9 -2 -13 8 -42 -14 -34
-26 3 -5 -1 -6 -9 -3 -8 3 -20 -2 -27 -11 l-12 -15 28 2 c35 2 56 16 47 31
l-6 10 12 -7 12 -8 14 12 c8 6 11 18 8 26 -5 15 -22 19 -24 7z" />
    <path d="M1982 1817 c-7 -8 -8 -18 -4 -22 l7 -8 -13 7 -13 8 -14 -12 c-8 -7
-12 -16 -9 -21 3 -5 -1 -6 -9 -3 -8 3 -18 1 -21 -4 -8 -14 36 -23 51 -10 7 5
10 15 6 21 l-6 10 12 -7 12 -8 14 12 c8 7 12 16 9 21 -3 5 1 6 9 3 8 -3 18 -1
22 5 3 6 2 11 -4 11 -5 0 -16 2 -24 5 -7 3 -19 0 -25 -8z" />
    <path d="M1545 1780 c-8 -14 3 -30 21 -30 16 0 16 2 8 24 -7 18 -20 21 -29 6z" />
    <path d="M1778 1747 l-26 -22 15 -14 15 -13 11 11 11 11 -12 0 c-7 0 -12 5
-12 11 l0 11 24 -6 24 -6 12 15 12 15 -10 0 c-6 0 -16 2 -24 5 -7 2 -25 -6
-40 -18z" />
    <path d="M1497 1753 c-11 -10 -8 -25 3 -18 6 3 10 1 10 -4 0 -6 7 -11 15 -11
19 0 19 7 1 26 -16 16 -20 17 -29 7z" />
    <path d="M1944 1715 c-20 -19 -40 -35 -44 -35 -4 0 -13 -7 -20 -15 l-12 -15
26 0 26 0 28 40 c15 21 33 39 40 40 14 0 17 20 3 20 -5 0 -26 -16 -47 -35z" />
    <path d="M1865 1730 c-3 -4 5 -10 18 -14 l22 -5 14 14 14 14 -32 -1 c-17 -1
-34 -4 -36 -8z" />
    <path d="M1421 1698 c-5 -13 -6 -29 -3 -36 7 -19 36 -10 41 13 l3 19 -16 -13
c-9 -8 -19 -11 -23 -7 -3 3 -1 6 6 6 7 0 9 5 6 10 -3 6 -1 10 4 10 6 0 11 5
11 10 0 19 -21 10 -29 -12z" />
    <path d="M1715 1700 c-4 -6 -14 -9 -23 -8 l-17 3 0 -15 0 -15 -18 3 c-19 3
-23 -13 -5 -24 l12 -8 4 12 c2 7 10 12 18 12 8 0 17 7 20 15 4 8 10 15 15 15
5 0 9 -7 9 -15 0 -18 17 -20 22 -3 8 23 -25 47 -37 28z" />
    <path d="M1821 1697 c-6 -8 -7 -17 -3 -21 4 -4 2 -6 -3 -4 -6 2 -21 -7 -35
-19 l-24 -23 17 0 c9 0 17 5 17 10 0 6 8 10 17 10 23 0 53 29 46 46 -7 18 -17
18 -32 1z" />
    <path d="M1502 1648 c-16 -16 -15 -38 2 -38 13 0 26 20 26 41 0 13 -14 11 -28
-3z" />
    <path d="M1601 1636 l-11 -13 15 -13 16 -13 -17 -18 c-24 -27 -8 -37 18 -12
l21 21 -8 19 c-5 10 -7 24 -6 31 3 16 -14 15 -28 -2z" />
    <path d="M1844 1630 c-30 -12 -37 -27 -17 -34 l17 -7 25 26 26 25 -15 -1 c-8
0 -25 -4 -36 -9z" />
    <path d="M1720 1616 l0 -14 -17 2 -17 1 -15 -30 c-8 -16 -21 -35 -30 -42 -9
-7 -11 -12 -6 -13 6 0 24 11 40 25 l30 25 -15 10 -15 11 26 -6 25 -6 13 15
c13 15 7 36 -10 36 -5 0 -9 -6 -9 -14z" />
    <path d="M1447 1602 c-21 -23 -21 -32 -1 -32 l15 0 -6 10 -6 10 15 0 c9 0 16
7 16 15 0 20 -13 19 -33 -3z" />
    <path d="M1563 1595 c-3 -9 -3 -18 0 -22 10 -10 37 6 37 22 0 20 -29 20 -37 0z" />
    <path d="M1773 1578 c-10 -17 -14 -48 -6 -48 15 0 41 33 36 46 -6 17 -19 18
-30 2z" />
    <path d="M1714 1529 c-10 -12 -19 -24 -19 -28 0 -3 -5 -5 -11 -3 -6 1 -17 -5
-24 -13 l-12 -15 28 2 c31 2 67 25 59 39 -3 4 -1 10 5 14 12 7 13 25 2 25 -5
0 -17 -9 -28 -21z" />
    <path d="M1553 1461 l-13 -20 10 -6 c14 -9 52 14 47 28 -6 20 -31 19 -44 -2z" />
    <path d="M1615 1451 c-3 -6 -2 -11 4 -11 6 0 8 -7 5 -15 -9 -21 10 -19 31 5
10 11 13 20 7 20 -6 0 -17 3 -25 6 -8 3 -18 1 -22 -5z" />
    <path d="M1493 1406 c-29 -14 -37 -35 -17 -43 l15 -6 24 23 c36 34 23 49 -22
26z" />
    <path d="M1545 1360 c-28 -31 -8 -37 23 -7 l27 27 -16 0 c-9 0 -24 -9 -34 -20z" />
    <path d="M1453 1249 c-13 -5 -23 -13 -23 -20 0 -6 6 -9 14 -6 7 3 18 1 23 -4
l10 -10 12 14 11 14 -12 11 -13 10 -22 -9z" />
    <path d="M1401 1160 c-25 -21 -46 -27 -36 -10 l6 10 -16 0 -16 0 6 -19 6 -19
-21 -7 c-24 -8 -26 -21 -4 -29 21 -8 47 13 40 31 l-6 14 10 -6 c6 -4 25 7 42
24 35 34 27 42 -11 11z" />
    <path d="M1270 1072 c0 -4 -13 -16 -30 -25 -36 -22 -38 -33 -6 -32 26 0 41 10
41 28 1 7 6 11 11 10 6 -1 11 5 11 13 0 8 -6 14 -14 14 -7 0 -13 -4 -13 -8z" />
    <path d="M1118 964 c-16 -8 -28 -19 -28 -25 l0 -10 30 16 c35 18 44 19 34 4
-4 -7 7 -4 24 7 17 10 29 20 27 22 -3 3 -12 -1 -21 -9 l-17 -14 -4 13 c-6 15
-11 15 -45 -4z" />
  </g>
  <g transform="translate(0.000000,512.000000) scale(0.100000,-0.100000)" fill="#2162a8" stroke="none">
    <path d="M2375 2910 c-88 -49 -161 -94 -164 -101 l-4 -12 22 6 c35 9 341 178
341 188 0 21 -43 3 -195 -81z" />
    <path d="M2035 2704 c-83 -46 -270 -145 -416 -219 -147 -74 -269 -141 -272
-148 -3 -7 -46 -35 -96 -61 -80 -43 -109 -66 -83 -66 32 0 296 135 477 244 55
33 163 93 240 134 153 81 301 168 310 182 17 28 -27 9 -160 -66z" />
    <path d="M2273 2759 c-35 -22 -43 -39 -19 -39 20 0 60 34 55 48 l-4 11 -32
-20z" />
    <path d="M1920 2696 c-74 -41 -183 -99 -242 -130 -98 -52 -129 -76 -96 -76 31
0 498 254 498 270 0 19 -27 8 -160 -64z" />
    <path d="M2780 2627 c-91 -72 -226 -183 -300 -246 -73 -62 -140 -115 -147
-118 -17 -7 -17 -33 0 -33 6 0 91 66 187 146 96 80 235 193 308 252 114 91
153 133 125 132 -5 0 -82 -60 -173 -133z" />
    <path d="M2909 2579 c-226 -194 -271 -239 -241 -239 5 0 73 55 152 123 79 67
147 122 150 122 4 0 19 14 34 32 15 18 35 35 45 38 10 3 23 16 29 30 l11 24
-8 5 c-5 3 -82 -58 -172 -135z" />
    <path d="M2073 2604 c-69 -43 -89 -64 -60 -64 18 1 149 84 149 95 -1 20 -19
14 -89 -31z" />
    <path d="M2282 2564 c-12 -8 -20 -19 -17 -24 l6 -9 24 11 c14 6 25 17 25 25 0
17 -11 17 -38 -3z" />
    <path d="M2158 2539 c-36 -18 -50 -39 -28 -39 22 0 90 41 85 50 -8 13 -14 12
-57 -11z" />
    <path d="M1983 2465 l-28 -24 20 -1 c23 0 65 26 65 41 0 17 -29 9 -57 -16z" />
    <path d="M2195 2413 c-103 -69 -256 -165 -291 -182 l-31 -16 6 -18 6 -18 184
118 c100 65 190 123 199 128 21 13 27 35 9 35 -7 0 -44 -21 -82 -47z" />
    <path d="M2180 2356 c-28 -25 -453 -291 -462 -288 -5 1 -28 -13 -50 -33 -23
-19 -45 -35 -50 -35 -4 0 -8 -7 -8 -15 0 -28 26 -14 310 168 l285 182 3 18 c4
20 -8 22 -28 3z" />
    <path d="M1108 2282 c-62 -30 -100 -62 -73 -62 8 0 148 80 160 91 l9 9 -9 -1
c-6 0 -45 -17 -87 -37z" />
    <path d="M1637 2253 c-89 -54 -113 -73 -87 -73 16 0 190 110 190 121 0 13 3
14 -103 -48z" />
    <path d="M1238 2162 c-70 -37 -131 -72 -135 -76 l-8 -9 15 7 c8 5 2 -3 -15
-18 l-30 -25 14 -1 c11 0 147 79 277 160 23 15 32 30 17 30 -5 0 -65 -31 -135
-68z" />
    <path d="M1415 2157 c-22 -12 -41 -31 -43 -40 l-4 -18 51 25 50 26 -5 15 c-4
8 -7 15 -8 15 0 0 -19 -11 -41 -23z" />
    <path d="M2355 2094 c-44 -36 -177 -137 -296 -225 -120 -88 -230 -172 -245
-186 l-29 -26 12 -4 c16 -6 542 380 635 465 24 22 29 43 10 42 -4 -1 -43 -30
-87 -66z" />
    <path d="M2135 2069 c-38 -28 -136 -96 -217 -151 -140 -96 -166 -118 -135
-118 26 0 447 293 447 310 0 20 -26 8 -95 -41z" />
    <path d="M1393 2007 c-114 -77 -145 -107 -107 -107 22 0 85 45 76 55 l-7 8 12
-7 13 -7 20 14 c11 8 17 17 12 22 l-7 8 12 -7 12 -6 60 38 59 37 -9 18 c-14
24 -10 25 -146 -66z" />
    <path d="M1935 1860 c-154 -115 -281 -215 -284 -222 -2 -7 -10 -19 -19 -26
l-16 -12 10 -10 10 -10 57 44 c31 24 55 45 53 47 -4 4 290 234 414 324 60 43
87 76 63 75 -5 -1 -134 -95 -288 -210z" />
    <path d="M1908 1962 c-42 -24 -100 -82 -82 -82 12 0 134 91 134 101 0 12 2 13
-52 -19z" />
    <path d="M399 1930 c-75 -66 -112 -126 -155 -251 l-36 -104 6 -100 c7 -122 26
-198 74 -290 l37 -70 76 -76 76 -77 84 -40 c108 -52 173 -67 284 -66 l90 1 71
21 72 22 5 20 5 20 -11 0 c-7 0 -34 -7 -62 -16 l-50 -16 -95 -1 -95 -1 -55 13
c-30 7 -88 29 -128 48 l-73 34 -67 63 -67 64 -38 63 c-21 35 -47 96 -59 134
l-22 70 0 95 0 95 22 72 c28 91 76 174 142 243 83 90 61 111 -31 30z" />
    <path d="M1800 1595 c-96 -80 -179 -145 -185 -145 -16 -1 -220 -208 -213 -216
7 -7 58 26 98 64 14 13 117 103 230 200 112 97 220 192 240 209 l35 32 -15 0
c-8 0 -94 -65 -190 -144z" />
    <path d="M1478 1529 c-40 -32 -48 -49 -24 -49 20 0 76 49 76 66 0 20 -10 17
-52 -17z" />
    <path d="M1385 1140 c-9 -10 -22 -18 -27 -17 -6 1 -12 -6 -13 -15 -2 -10 0
-18 3 -18 11 0 65 60 60 65 -3 3 -13 -4 -23 -15z" />
  </g>
  <g transform="translate(0.000000,512.000000) scale(0.100000,-0.100000)" fill="#325da2" stroke="none">
    <path d="M3015 2637 c-30 -29 -55 -51 -55 -48 0 2 -11 -6 -25 -19 -13 -12 -22
-27 -19 -32 6 -10 139 105 155 133 16 31 2 22 -56 -34z" />
    <path d="M1728 2594 c-38 -19 -68 -37 -68 -39 0 -3 32 11 70 30 39 19 70 37
70 40 0 7 3 8 -72 -31z" />
    <path d="M2856 2501 l-28 -29 10 -6 c5 -3 21 8 36 23 l28 29 -10 6 c-5 3 -21
-8 -36 -23z" />
    <path d="M1318 2289 c-21 -11 -38 -22 -38 -24 0 -7 73 24 85 36 l9 9 -9 0 c-6
-1 -27 -10 -47 -21z" />
    <path d="M1080 2260 c0 -6 -4 -8 -10 -5 -5 3 -10 2 -10 -4 0 -6 -7 -8 -15 -5
-8 4 -15 2 -15 -3 0 -14 32 -12 53 2 l18 13 -10 7 c-6 3 -11 1 -11 -5z" />
    <path d="M1392 2242 c-18 -10 -30 -20 -27 -24 7 -7 74 24 75 35 0 11 -11 8
-48 -11z" />
    <path d="M928 2184 c-27 -13 -48 -29 -48 -34 0 -6 23 1 50 15 28 14 50 30 50
35 0 12 4 14 -52 -16z" />
    <path d="M1038 2169 c-47 -24 -75 -49 -54 -49 14 0 136 64 136 71 0 15 -22 9
-82 -22z" />
    <path d="M1315 2190 l8 -12 -22 7 -22 7 3 -14 3 -13 -19 2 c-25 2 -59 -21 -62
-42 -1 -8 1 -15 6 -15 13 0 30 26 22 35 -4 4 3 4 15 1 l23 -7 12 11 c7 6 22
17 32 24 l19 13 -13 8 -13 8 8 -13z" />
    <path d="M1796 2142 c-82 -53 -114 -82 -87 -82 6 0 11 4 11 9 0 9 141 101 154
101 4 0 4 -6 0 -12 l-7 -13 8 8 c8 7 19 48 12 46 -1 0 -42 -26 -91 -57z" />
    <path d="M934 2116 c-10 -8 -16 -17 -12 -21 8 -8 48 13 48 25 0 14 -13 12 -36
-4z" />
    <path d="M1134 2104 l-19 -15 25 7 25 6 -20 -16 -20 -15 12 -1 c13 0 26 17 29
38 3 16 -8 15 -32 -4z" />
    <path d="M1508 2082 c-10 -2 -18 -8 -18 -13 0 -5 -7 -9 -15 -9 -8 0 -15 -4
-15 -10 0 -5 -7 -10 -15 -10 -8 0 -15 -4 -15 -10 0 -5 -7 -10 -15 -10 -8 0
-15 -4 -15 -10 0 -5 -7 -10 -15 -10 -8 0 -15 -4 -15 -10 0 -5 -6 -10 -14 -10
-17 0 -27 -23 -16 -39 l8 -13 6 11 7 11 -13 0 c-7 0 30 29 82 64 52 35 98 62
102 60 4 -3 9 -1 12 4 5 9 -7 11 -36 4z" />
    <path d="M1472 2023 c-30 -19 -52 -37 -49 -39 5 -5 117 63 117 71 0 10 -17 2
-68 -32z" />
    <path d="M1663 1999 c-18 -12 -30 -25 -27 -30 l5 -9 20 10 20 11 -7 11 -7 11
15 -5 15 -6 0 14 c0 8 -1 14 -1 14 -1 0 -16 -10 -33 -21z" />
    <path d="M1886 1927 l-30 -21 7 17 c9 23 0 22 -13 -3 l-11 -20 13 0 c7 0 27
11 43 25 37 30 30 32 -9 2z" />
    <path d="M1959 1723 c-6 -7 -8 -13 -4 -13 4 0 1 -8 -6 -17 -7 -10 1 -5 19 11
18 17 32 30 32 31 0 8 -33 -1 -41 -12z" />
    <path d="M1905 1680 c-10 -11 -15 -20 -10 -20 4 0 1 -8 -6 -17 l-13 -18 25 23
c14 12 26 29 26 37 0 19 0 19 -22 -5z" />
    <path d="M1466 1665 c-3 -8 -12 -15 -21 -15 -8 0 -15 -7 -15 -15 0 -8 3 -15 6
-15 12 0 64 42 64 51 0 15 -27 10 -34 -6z" />
    <path d="M1653 1668 c-4 -7 -6 -21 -5 -31 l3 -17 -15 -6 c-22 -8 -20 -19 3
-21 11 -1 27 8 38 19 l18 21 -17 -6 -18 -6 0 12 c0 7 5 18 11 24 l11 11 -10 6
c-6 3 -14 1 -19 -6z" />
    <path d="M1785 1649 c-4 -6 -13 -8 -21 -5 l-14 5 3 -11 c1 -7 -4 -13 -10 -14
-7 -1 -18 -2 -23 -3 -6 0 -15 -12 -20 -26 l-9 -25 -16 6 -15 6 -9 -23 c-10
-29 -7 -35 11 -20 7 6 41 33 76 61 34 28 62 53 62 55 0 9 -9 5 -15 -6z" />
    <path d="M1850 1635 c-13 -14 -20 -25 -15 -25 5 0 -2 -12 -16 -27 l-24 -28 32
29 c18 16 31 32 28 34 -3 3 2 14 12 24 25 28 10 22 -17 -7z" />
    <path d="M1514 1558 l-19 -21 15 8 15 9 -14 -17 -13 -17 14 0 c19 0 38 20 38
42 0 24 -13 23 -36 -4z" />
    <path d="M1457 1512 c-21 -23 -22 -42 -3 -42 17 0 25 11 31 40 5 25 -7 26 -28
2z" />
    <path d="M1640 1465 c-7 -9 -19 -14 -27 -11 -7 3 -13 0 -13 -6 0 -6 -8 -17
-17 -24 -10 -7 -13 -13 -8 -14 11 0 94 69 84 70 -4 0 -12 -7 -19 -15z" />
    <path d="M1333 1097 l2 -12 -20 0 -20 0 0 -15 c-1 -8 -6 -14 -11 -13 -6 1 -11
-5 -11 -13 0 -20 7 -17 50 20 l38 34 -16 5 -15 6 3 -12z" />
  </g>
  <g transform="translate(0.000000,512.000000) scale(0.100000,-0.100000)" fill="#313b75" stroke="none">
    <path d="M4843 4260 c-13 -5 -23 -14 -23 -19 0 -5 -8 -8 -17 -7 l-18 1 3 -14
3 -13 -15 5 c-9 4 -15 3 -15 -1 3 -19 -2 -33 -10 -27 -6 3 -13 -1 -18 -9 -4
-8 -12 -15 -18 -15 -5 0 -11 -5 -13 -13 l-4 -13 11 15 c6 8 11 11 11 5 0 -5 7
-1 15 9 8 11 15 16 15 10 0 -5 7 -1 14 9 8 10 18 19 23 20 4 1 7 8 7 15 l-2
13 14 -12 14 -11 0 11 c0 6 6 10 13 9 6 -2 11 3 9 11 l-3 13 14 -5 14 -5 0 14
c0 8 -1 14 -1 13 -1 0 -11 -4 -23 -9z" />
    <path d="M4788 4168 c-27 -16 -48 -34 -48 -39 0 -10 85 44 95 61 8 14 7 13
-47 -22z" />
    <path d="M4661 4131 c-12 -12 -24 -21 -28 -20 -4 0 -9 -5 -11 -11 l-4 -12 21
11 c11 7 21 16 21 22 0 6 4 8 9 4 10 -6 26 13 18 21 -3 3 -15 -4 -26 -15z" />
    <path d="M4639 4073 c-1 -5 -1 -12 0 -16 1 -4 -6 -7 -15 -5 l-17 3 -2 -18 -3
-17 29 21 c16 11 27 25 24 30 -7 11 -15 12 -16 2z" />
    <path d="M4390 4025 l-25 -14 14 -1 15 0 -20 -16 -19 -15 23 11 23 11 -7 11
-7 11 17 -6 17 -7 -7 12 -7 11 16 -6 c9 -3 18 -3 21 1 8 13 -28 11 -54 -3z" />
    <path d="M4564 3925 c-9 -13 -20 -23 -24 -20 -5 3 -11 1 -14 -4 l-6 -9 17 3
c10 2 21 4 26 4 4 1 7 8 7 17 0 8 4 13 9 9 5 -3 12 -1 15 4 14 23 -15 19 -30
-4z" />
    <path d="M4270 3904 c-25 -13 -34 -22 -21 -18 l24 6 -8 -12 -7 -12 21 12 22
11 -7 11 -7 11 15 -5 15 -6 0 14 c0 8 -1 14 -1 14 -1 -1 -21 -12 -46 -26z" />
    <path d="M4458 3893 c-21 -14 -38 -30 -38 -35 0 -5 -4 -7 -9 -3 -5 3 -12 2
-15 -3 -14 -23 28 -4 66 29 50 44 48 48 -4 12z" />
    <path d="M4455 3844 c-22 -20 -31 -30 -21 -23 11 8 29 14 40 14 l21 0 1 23 c1
12 1 22 0 22 0 0 -19 -16 -41 -36z" />
    <path d="M4295 3784 c-22 -15 -44 -31 -50 -37 l-10 -10 15 8 c8 5 27 17 42 27
30 21 42 23 32 6 l-8 -13 17 14 c9 7 14 17 11 22 -7 12 -4 13 -49 -17z" />
    <path d="M3777 3619 l-17 -10 6 -11 7 -11 -15 5 -15 6 0 -13 0 -14 19 10 19
10 -7 11 -7 11 16 -6 c9 -3 19 -2 22 3 9 14 -9 19 -28 9z" />
    <path d="M4142 3603 l-34 -27 -9 15 -9 14 0 -17 c0 -26 21 -22 60 12 43 36 37
39 -8 3z" />
    <path d="M3831 3551 c-11 -11 -22 -17 -25 -14 -3 3 -8 -2 -12 -11 -3 -9 -10
-13 -15 -10 -5 3 -12 -2 -15 -10 -3 -9 -10 -14 -14 -11 -5 3 -11 1 -14 -4 -4
-5 2 -8 11 -7 9 2 19 8 21 14 2 7 7 10 12 7 4 -2 18 5 32 18 13 12 28 23 33
24 10 2 20 23 11 23 -3 0 -15 -9 -25 -19z" />
    <path d="M4008 3511 c-8 -12 -17 -19 -20 -16 -3 3 -13 -3 -22 -14 l-17 -19 9
-6 c10 -6 78 61 70 69 -3 4 -12 -3 -20 -14z" />
    <path d="M3210 3349 c0 -5 -4 -8 -10 -4 -5 3 -35 -8 -67 -25 -32 -17 -47 -28
-34 -24 l24 6 -8 -12 -7 -12 21 12 22 11 -7 11 -7 11 17 -6 17 -7 -7 12 -7 11
16 -6 16 -6 23 19 23 19 -12 1 c-7 0 -13 -5 -13 -11z" />
    <path d="M3351 3235 c-35 -24 -69 -49 -75 -56 -6 -6 24 12 67 40 42 28 77 54
77 56 0 7 0 7 -69 -40z" />
    <path d="M2910 3215 c-36 -19 -60 -34 -55 -34 6 0 39 15 75 34 36 19 61 34 55
34 -5 0 -39 -15 -75 -34z" />
    <path d="M2580 3055 c-69 -35 -120 -64 -115 -64 6 0 66 29 135 64 69 35 121
64 115 64 -5 0 -66 -29 -135 -64z" />
    <path d="M3274 3096 c-3 -9 -10 -14 -15 -11 -4 3 -13 -4 -19 -15 -6 -11 -15
-18 -21 -15 -5 4 -12 -1 -15 -9 -3 -9 -10 -14 -14 -11 -5 3 -11 1 -14 -4 -13
-21 14 -20 28 1 9 12 16 18 16 13 1 -6 9 0 19 12 10 12 21 20 23 17 3 -2 11 2
18 11 7 9 10 18 7 22 -4 3 -9 -2 -13 -11z" />
    <path d="M3040 3081 c0 -7 -5 -9 -10 -6 -6 3 -13 -1 -16 -9 -3 -9 -10 -14 -15
-11 -4 3 -13 -5 -19 -17 l-11 -23 14 17 c8 10 17 15 20 11 4 -3 9 2 13 11 3 9
10 14 14 11 10 -6 24 14 16 22 -3 4 -6 1 -6 -6z" />
    <path d="M2909 3003 c-1 -5 -1 -12 0 -17 1 -5 -4 -6 -12 -3 -17 6 -42 -8 -42
-24 0 -7 -6 -14 -14 -17 l-14 -5 8 14 8 14 -9 -8 c-5 -5 -9 -12 -9 -15 0 -4
-4 -13 -9 -21 -5 -7 19 5 53 28 34 23 59 46 56 52 -7 11 -15 12 -16 2z" />
    <path d="M3055 2945 c-16 -13 -26 -24 -21 -25 5 0 2 -8 -5 -17 l-14 -18 34 26
c19 14 35 33 37 42 3 21 5 22 -31 -8z" />
    <path d="M2754 2905 l-19 -15 20 6 20 5 -24 -18 c-57 -42 -62 -51 -8 -17 58
38 70 48 40 37 l-16 -6 7 11 c10 16 4 15 -20 -3z" />
    <path d="M2581 2365 c-35 -36 -56 -62 -46 -59 l18 7 -8 -14 -9 -14 17 14 c9 7
14 18 11 23 -4 5 15 32 42 59 27 27 46 49 43 49 -3 0 -34 -29 -68 -65z" />
  </g>
  <g transform="translate(0.000000,512.000000) scale(0.100000,-0.100000)" fill="#282a5a" stroke="none">
    <path d="M4485 4075 l-80 -44 23 2 c12 0 22 5 22 10 0 4 5 5 10 2 6 -3 10 -2
10 4 0 5 15 14 33 20 33 12 89 51 72 50 -5 0 -46 -20 -90 -44z" />
    <path d="M4225 3940 c-27 -17 -46 -30 -42 -30 11 0 107 49 107 55 0 10 -16 4
-65 -25z" />
    <path d="M3265 3440 c-27 -17 -46 -30 -42 -30 11 0 107 49 107 55 0 10 -16 4
-65 -25z" />
    <path d="M2555 3070 c-27 -17 -46 -30 -42 -30 11 0 107 49 107 55 0 10 -16 4
-65 -25z" />
  </g>
  <g transform="translate(0.000000,512.000000) scale(0.100000,-0.100000)" fill="#e4812b" stroke="none">
    <path d="M1120 2229 l-25 -10 15 -9 c8 -5 23 -10 32 -10 l17 0 -2 20 c-1 22
-2 23 -37 9z" />
    <path d="M952 2157 c-101 -51 -118 -69 -72 -75 l23 -4 -7 17 -6 17 15 -6 16
-6 -7 12 -7 11 17 -6 17 -7 -7 12 -7 11 17 -6 17 -7 -7 12 -7 11 17 -6 17 -7
-7 12 -7 11 17 -6 17 -7 -7 12 -7 11 17 -6 17 -7 -7 12 -7 11 17 -6 c9 -4 15
-3 12 2 -3 4 6 13 20 20 35 16 44 13 14 -4 -30 -17 -22 -19 17 -4 l27 10 -14
9 c-25 16 -41 11 -148 -43z" />
    <path d="M1045 2127 c-44 -22 -92 -40 -107 -41 -29 -1 -37 -10 -15 -19 21 -8
102 8 128 26 13 10 41 22 62 28 l37 10 0 19 c0 27 -12 24 -105 -23z" />
    <path d="M1268 2156 c-10 -7 -15 -15 -12 -18 3 -4 -3 -5 -13 -4 l-18 1 2 -12
3 -12 -17 6 -16 6 7 -11 7 -12 -14 6 c-7 2 -25 -5 -38 -16 -13 -12 -18 -19
-11 -15 21 11 13 -4 -9 -16 l-21 -11 7 12 8 13 -14 -5 c-8 -3 -13 -10 -12 -16
l3 -11 -18 6 -17 6 12 -13 12 -13 45 19 c26 11 44 24 42 29 -2 6 7 11 20 11
13 1 31 9 39 18 9 9 21 16 26 16 16 0 41 29 34 40 -8 13 -16 12 -37 -4z" />
    <path d="M1580 2160 c0 -6 -6 -10 -13 -10 -7 0 -23 -9 -35 -20 -12 -11 -26
-20 -32 -20 -5 0 -10 -4 -10 -10 0 -5 -7 -10 -15 -10 -8 0 -15 -4 -15 -10 0
-5 -7 -10 -15 -10 -8 0 -15 -4 -15 -10 0 -5 -7 -10 -15 -10 -8 0 -15 -4 -15
-10 0 -5 -5 -10 -10 -10 -6 0 -23 -11 -38 -25 -15 -14 -32 -25 -39 -25 -7 0
-13 -4 -13 -10 0 -5 -7 -10 -15 -10 -20 0 -19 -16 1 -24 20 -8 36 2 28 16 l-7
11 11 -7 11 -7 105 71 c58 38 110 70 116 70 5 0 10 4 10 9 0 5 9 13 21 16 l20
7 -5 14 -6 15 10 -6 c6 -3 10 -2 10 3 0 6 -7 12 -15 16 -8 3 -15 1 -15 -4z" />
    <path d="M707 2104 c-43 -22 -55 -44 -24 -44 l12 0 -13 8 -13 9 41 18 c23 10
43 22 46 27 7 11 6 10 -49 -18z" />
    <path d="M1652 2049 c-9 -10 -22 -19 -28 -19 -7 0 -14 -7 -18 -15 -3 -8 -12
-15 -21 -15 -8 0 -15 -4 -15 -10 0 -5 -7 -10 -15 -10 -8 0 -15 -4 -15 -10 0
-5 -7 -10 -15 -10 -8 0 -15 -4 -15 -10 0 -5 -8 -10 -17 -9 l-18 0 23 16 c12 8
22 21 22 28 l0 13 -17 -3 c-10 -2 -22 -4 -27 -4 -4 -1 -6 -7 -3 -15 l6 -14
-20 5 -19 5 -1 -13 c-1 -8 -1 -17 -1 -20 1 -4 -7 -5 -18 -2 l-20 5 -6 -16 c-3
-9 -13 -16 -20 -16 -8 0 -17 -7 -20 -15 -4 -8 -12 -15 -20 -15 -18 0 -18 -15
2 -45 20 -30 24 -31 54 -5 13 11 27 20 32 20 5 0 18 8 29 18 10 11 32 25 47
33 15 8 36 22 46 32 11 9 26 17 33 17 7 0 13 3 13 8 0 4 16 18 35 31 l35 23
-7 11 -6 10 10 -6 c10 -6 53 19 53 31 0 16 -42 10 -58 -9z" />
    <path d="M1198 2033 c-21 -5 -23 -19 -5 -27 6 -3 1 -3 -13 0 l-25 6 17 -18
c18 -18 28 -16 32 8 1 7 5 19 9 26 5 6 7 11 5 11 -2 -1 -11 -3 -20 -6z" />
    <path d="M631 1973 c0 -13 -5 -23 -11 -23 -5 0 -10 -4 -10 -9 0 -5 10 -7 22
-3 l21 5 -7 -19 c-4 -10 -11 -26 -14 -34 l-6 -15 17 17 c19 18 22 39 8 54 -5
5 -11 18 -14 29 l-5 20 -1 -22z" />
    <path d="M1620 1911 c0 -5 3 -11 8 -14 4 -2 2 -2 -5 -1 -14 3 -63 -18 -63 -28
0 -5 -7 -8 -15 -8 -8 0 -15 -4 -15 -10 0 -5 -7 -10 -15 -10 -8 0 -15 -4 -15
-10 0 -5 -7 -10 -15 -10 -8 0 -15 -4 -15 -10 0 -5 -7 -10 -15 -10 -8 0 -15 -4
-15 -10 0 -5 -7 -10 -15 -10 -8 0 -15 -4 -15 -10 0 -5 -7 -10 -15 -10 -8 0
-14 5 -12 11 1 6 -4 14 -12 17 l-14 5 19 -32 18 -31 19 0 19 0 -5 14 -5 14 16
-2 c9 0 16 4 15 10 l-2 12 19 -5 20 -5 0 11 c0 6 7 11 15 11 8 0 15 5 15 10 0
6 7 10 15 10 8 0 15 5 15 10 0 6 7 10 15 10 8 0 15 5 15 10 0 6 7 10 15 10 8
0 15 5 15 10 0 6 7 10 15 10 8 0 15 3 16 8 0 4 2 15 4 25 l3 17 -14 0 c-8 0
-14 -4 -14 -9z" />
    <path d="M401 1886 c-14 -17 -4 -43 19 -56 l19 -10 15 16 c25 24 17 42 -26 57
l-17 6 -10 -13z m54 -27 c0 -8 -10 -15 -22 -17 l-23 -3 0 25 0 25 23 -8 c12
-5 22 -15 22 -22z" />
    <path d="M1718 1873 c-10 -2 -18 -9 -18 -14 0 -5 -7 -9 -15 -9 -8 0 -15 -4
-15 -10 0 -5 -7 -10 -16 -10 l-16 0 5 -14 6 -14 -21 6 -21 5 6 -16 6 -16 -16
6 -15 6 -10 -16 c-5 -10 -15 -17 -22 -17 -8 0 -16 -7 -20 -15 -3 -8 -12 -15
-21 -15 -8 0 -15 -5 -15 -10 0 -6 -8 -14 -17 -17 -10 -4 -28 -17 -39 -29 l-21
-22 7 -12 c10 -15 22 -12 38 12 7 10 17 16 22 13 4 -3 11 2 14 11 l6 15 -12
-7 -11 -7 7 12 c4 6 11 9 16 6 15 -9 40 7 38 24 l-3 16 24 -3 24 -4 -6 16 -6
15 14 -6 15 -5 63 51 c35 29 64 58 64 66 0 8 -1 14 -1 14 -1 -1 -9 -3 -18 -6z" />
    <path d="M370 1745 l-24 -25 -8 12 c-4 7 -8 9 -8 3 0 -5 4 -15 8 -21 l7 -11
31 33 c17 19 28 34 24 34 -3 0 -17 -11 -30 -25z" />
    <path d="M458 1760 c39 -9 34 -5 66 -60 14 -25 26 -40 26 -35 0 40 -62 105
-99 104 l-26 -1 33 -8z" />
    <path d="M1578 1690 c-7 -11 -18 -20 -25 -20 -6 0 -19 -10 -27 -21 -8 -12 -25
-27 -37 -33 -12 -6 -24 -16 -26 -22 -6 -17 26 -25 49 -13 l20 11 -6 14 -6 15
10 -6 c5 -3 21 2 35 11 l26 17 -5 13 c-3 7 3 18 12 26 l17 13 -15 -20 -15 -20
18 14 c9 7 17 20 17 27 0 21 -28 17 -42 -6z" />
    <path d="M543 1614 c20 -21 -42 -84 -82 -84 -30 0 -28 -4 52 -103 63 -78 265
-267 286 -267 4 0 14 12 22 26 7 14 26 37 42 50 16 14 27 27 25 30 -3 3 -26
-18 -51 -46 l-46 -51 -35 36 c-20 20 -36 39 -36 44 0 16 30 33 46 27 l15 -6
-6 -22 -6 -23 11 18 12 18 -12 15 c-18 20 -37 17 -57 -10 l-18 -23 -59 56
c-32 31 -90 92 -127 136 l-68 79 31 11 32 10 23 34 c26 38 29 51 11 51 -6 0
-9 -3 -5 -6z" />
    <path d="M1590 1600 c-6 -11 -15 -20 -20 -20 -5 0 -33 -22 -62 -50 -29 -27
-56 -50 -60 -50 -4 0 -8 -7 -8 -15 l0 -15 20 0 21 0 -3 16 -3 17 18 3 c35 5
48 14 45 30 l-3 17 18 3 c10 1 25 5 34 8 l15 6 -5 14 -6 15 17 13 17 13 -14
-20 -15 -20 18 17 c10 9 15 21 12 27 -11 17 -24 13 -36 -9z" />
    <path d="M690 1606 c0 -3 6 -22 14 -40 l14 -33 -10 -19 -9 -19 15 18 14 19
-15 36 c-16 38 -23 50 -23 38z" />
    <path d="M1440 1560 l0 -20 13 3 c19 3 27 21 14 29 -20 13 -27 9 -27 -12z" />
    <path d="M1609 1537 c-20 -17 -68 -58 -107 -90 l-70 -59 -5 -24 -4 -24 12 0
c13 0 30 28 26 43 -1 5 2 6 7 3 11 -6 72 30 73 44 1 5 2 15 3 22 0 6 12 13 25
15 31 4 63 33 57 49 -3 7 3 18 12 26 l17 13 -15 -20 -15 -20 18 14 c17 13 24
41 10 41 -5 0 -24 -15 -44 -33z" />
    <path d="M730 1516 c0 -4 7 -21 16 -37 18 -36 12 -48 -13 -28 l-18 14 14 -17
c7 -10 19 -18 26 -18 7 0 20 -10 29 -22 9 -13 2 6 -15 42 -32 67 -39 78 -39
66z" />
    <path d="M564 1435 c-4 -8 -3 -22 0 -31 l6 -15 22 3 23 3 3 19 c2 10 0 22 -6
28 l-10 10 5 -26 5 -26 -22 0 -22 0 4 25 c6 28 1 33 -8 10z" />
    <path d="M900 1259 c0 -6 13 -23 28 -37 40 -39 114 -104 137 -122 l19 -15 -19
27 c-11 15 -25 28 -30 28 -16 0 -126 115 -119 123 4 4 2 7 -4 7 -7 0 -12 -5
-12 -11z" />
    <path d="M1425 1250 c-10 -11 -24 -20 -30 -20 -7 0 -28 -26 -48 -59 -20 -32
-43 -64 -52 -71 -20 -16 -19 -30 1 -30 l16 0 -6 17 c-4 10 -4 14 0 11 10 -10
46 11 39 23 -7 11 44 69 61 69 7 0 19 11 28 25 9 14 23 25 31 25 8 0 15 7 15
15 l0 15 -18 0 c-11 0 -27 -9 -37 -20z" />
    <path d="M1008 1070 c-16 -16 -28 -31 -28 -34 0 -8 101 -58 106 -53 2 2 -19
14 -46 27 -52 24 -60 34 -36 43 8 3 20 15 26 26 14 27 11 26 -22 -9z" />
    <path d="M1120 971 c0 -5 -21 -17 -47 -27 -65 -24 -73 -33 -18 -20 25 6 45 14
45 19 0 4 5 5 10 2 6 -3 10 -1 10 5 0 6 5 8 10 5 6 -3 10 -2 10 4 0 5 -4 13
-10 16 -5 3 -10 2 -10 -4z" />
  </g>
  <g transform="translate(0.000000,512.000000) scale(0.100000,-0.100000)" fill="#183896" stroke="none">
    <path d="M1900 2550 c0 -6 -5 -8 -10 -5 -6 3 -13 -1 -16 -9 -3 -9 -10 -13 -15
-10 -5 3 -9 0 -9 -6 0 -6 -4 -8 -10 -5 -5 3 -10 1 -10 -4 0 -6 -5 -10 -11 -8
-6 1 -14 -4 -16 -11 l-5 -14 32 17 c18 9 46 25 62 35 l30 18 -11 6 c-6 4 -11
2 -11 -4z" />
    <path d="M1820 2472 c-47 -26 -156 -86 -242 -132 l-157 -84 7 -10 6 -10 4 12
c2 7 8 10 12 7 5 -3 18 3 29 14 11 11 22 17 25 14 3 -4 6 -1 6 6 0 7 5 9 10 6
6 -3 10 -1 10 5 0 6 5 8 10 5 6 -3 10 -1 10 6 0 7 3 9 6 6 8 -8 64 24 64 36 0
4 5 5 10 2 6 -3 10 -1 10 5 0 6 5 8 10 5 6 -3 10 -1 10 5 0 6 5 8 10 5 6 -3
10 -1 10 6 0 7 3 9 6 6 8 -8 64 24 64 36 0 4 5 5 10 2 6 -3 10 -1 10 5 0 6 5
8 10 5 6 -3 10 -1 10 5 0 6 4 9 8 6 5 -3 18 3 29 14 12 10 24 16 27 13 3 -4 6
-1 6 6 0 7 4 10 10 6 5 -3 7 -12 4 -20 -4 -8 -10 -12 -15 -9 -5 3 -9 0 -9 -6
0 -6 -5 -8 -10 -5 -6 3 -13 -1 -16 -9 -3 -9 -10 -13 -15 -10 -5 3 -12 -2 -15
-10 -3 -9 -10 -13 -15 -10 -5 3 -9 0 -9 -6 0 -6 -5 -8 -10 -5 -6 3 -13 -1 -16
-9 -3 -9 -10 -13 -15 -10 -5 3 -9 0 -9 -6 0 -6 -5 -8 -10 -5 -6 3 -13 -1 -16
-9 -3 -9 -10 -13 -15 -10 -5 3 -9 0 -9 -6 0 -6 -5 -8 -10 -5 -6 3 -13 -1 -16
-9 -3 -9 -10 -13 -15 -10 -5 3 -9 0 -9 -6 0 -6 -4 -9 -8 -6 -5 3 -18 -2 -28
-12 -11 -9 -26 -18 -34 -20 -8 -2 -20 -10 -26 -17 -6 -8 -14 -12 -17 -8 -4 3
-7 1 -7 -6 0 -7 -5 -9 -10 -6 -6 3 -13 -1 -16 -9 -3 -9 -10 -13 -15 -10 -5 3
-9 0 -9 -6 0 -6 -4 -9 -8 -6 -5 3 -18 -2 -28 -12 -11 -9 -26 -18 -34 -20 -8
-2 -21 -10 -27 -19 -7 -9 -13 -13 -13 -7 0 5 -5 2 -11 -6 l-11 -15 5 22 c3 13
1 26 -4 29 -5 3 -10 -1 -11 -8 0 -7 -2 -17 -3 -23 -2 -5 -3 -14 -4 -20 l-1
-10 -8 12 -7 12 -83 -48 -82 -48 14 -12 14 -12 233 137 c129 75 301 177 382
226 82 50 150 88 153 85 6 -6 -55 -46 -269 -173 l-189 -112 11 -7 c6 -3 11 -1
11 5 0 6 5 8 10 5 6 -3 13 1 16 9 3 9 10 13 15 10 5 -3 9 0 9 6 0 6 5 8 10 5
6 -3 13 1 16 9 3 9 10 13 15 10 5 -3 9 0 9 6 0 6 4 9 8 6 5 -3 20 5 33 17 13
12 25 20 26 17 1 -3 11 2 21 10 10 8 25 16 33 18 8 2 19 10 25 17 6 8 14 12
17 8 4 -3 7 -1 7 6 0 7 5 9 10 6 6 -3 13 1 16 9 3 9 10 13 15 10 5 -3 9 0 9 6
0 6 5 8 10 5 6 -3 13 1 16 9 3 9 10 13 15 10 5 -3 12 2 15 10 3 9 10 14 14 11
5 -3 13 2 18 11 5 9 11 14 14 12 2 -1 12 5 21 14 l17 17 -20 11 -20 11 0 -11
0 -11 -12 7 -11 7 18 13 c44 33 2 19 -75 -24z" />
    <path d="M1780 2481 c0 -7 -4 -9 -10 -6 -5 3 -10 1 -10 -5 0 -6 -4 -8 -10 -5
-5 3 -10 1 -10 -5 0 -6 -4 -9 -10 -5 -5 3 -18 -3 -29 -14 -11 -11 -22 -17 -25
-13 -3 3 -6 0 -6 -7 0 -7 -4 -9 -10 -6 -5 3 -10 1 -10 -5 0 -6 -4 -8 -10 -5
-5 3 -10 1 -10 -6 0 -7 -3 -9 -6 -6 -8 8 -64 -24 -64 -36 0 -4 -4 -5 -10 -2
-5 3 -10 1 -10 -5 0 -6 -4 -8 -10 -5 -5 3 -10 1 -10 -5 0 -6 -4 -8 -10 -5 -5
3 -10 1 -10 -5 0 -6 -3 -9 -7 -7 -12 8 -93 -39 -85 -48 4 -5 1 -5 -7 0 l-14 8
17 13 17 12 -10 7 c-6 3 -11 1 -11 -4 0 -6 -38 -30 -85 -53 -47 -23 -85 -46
-85 -50 0 -5 13 -2 29 7 l29 15 4 -12 4 -12 240 128 c250 134 262 141 251 153
-4 3 -7 1 -7 -6z" />
    <path d="M2093 2425 l6 -14 -42 -34 c-43 -35 -340 -234 -478 -321 l-77 -48 4
-16 4 -17 -49 -35 c-27 -19 -47 -38 -44 -43 2 -4 0 -6 -5 -5 -6 2 -10 0 -11
-4 -1 -11 1 -12 27 -4 l22 7 -6 11 -7 11 10 -6 c5 -3 22 3 39 14 26 17 26 24
1 20 -5 -1 -6 3 -2 9 l7 11 12 -10 12 -10 43 28 43 29 -11 6 -11 7 -6 -15 c-3
-9 -10 -14 -14 -11 -5 3 -13 -3 -19 -12 l-10 -18 -7 18 -7 19 26 23 c13 13 27
21 31 18 3 -3 8 2 12 11 3 9 10 13 15 10 5 -3 12 2 15 10 3 9 9 14 14 11 4 -2
16 4 27 15 12 10 23 16 27 13 3 -3 8 2 12 11 3 9 10 13 15 10 5 -3 12 2 15 10
3 9 10 13 15 10 5 -3 12 2 15 10 3 9 10 13 15 10 5 -3 12 2 15 10 3 9 10 13
15 10 5 -3 12 2 15 10 3 9 10 13 15 10 5 -3 12 2 15 10 3 9 10 13 15 10 5 -3
12 2 15 10 3 9 10 13 15 10 5 -3 12 2 15 10 3 9 10 13 15 10 5 -3 12 2 15 10
3 9 10 13 15 10 5 -3 12 2 15 10 3 9 10 13 15 10 5 -3 12 2 15 10 3 9 10 14
14 11 5 -3 16 5 24 17 9 12 16 18 16 13 1 -6 10 1 20 14 11 13 20 19 20 15 0
-5 7 -1 15 9 14 20 10 47 -7 47 -6 0 -8 -7 -5 -15z" />
    <path d="M2064 2416 c-3 -9 -10 -14 -14 -11 -5 3 -15 -4 -23 -15 -7 -11 -17
-17 -20 -14 -4 4 -9 -1 -13 -10 -3 -9 -10 -13 -15 -10 -5 3 -12 -2 -15 -10 -3
-9 -10 -14 -14 -11 -5 3 -12 0 -15 -6 -16 -25 7 -15 79 35 l77 54 -10 7 -11 6
-6 -15z" />
    <path d="M1271 2369 c-41 -25 -35 -37 9 -14 l31 16 19 -6 20 -6 0 10 c0 6 -4
11 -9 11 -5 0 -15 2 -23 5 -7 3 -28 -4 -47 -16z" />
    <path d="M1770 2291 c-90 -54 -165 -103 -166 -110 l-2 -11 5 10 c2 5 9 8 14 4
5 -3 12 2 15 10 3 9 10 13 15 10 5 -3 9 0 9 6 0 6 5 8 10 5 6 -3 13 1 16 9 3
9 10 13 15 10 5 -3 9 0 9 6 0 6 4 9 8 6 5 -3 20 5 33 17 13 12 25 20 26 17 1
-3 13 4 25 15 13 10 24 17 25 15 1 -3 11 3 22 12 11 9 22 14 25 11 3 -4 6 -1
6 6 0 7 4 10 8 7 5 -3 18 3 29 14 12 10 24 16 27 13 3 -4 6 -1 6 5 0 19 -6 16
-180 -87z" />
    <path d="M1221 2305 c-52 -30 -98 -61 -103 -69 l-9 -16 15 0 c17 0 46 26 46
41 0 6 4 8 8 5 5 -3 18 3 29 14 12 10 24 16 27 13 3 -4 6 0 6 7 0 7 3 10 6 7
8 -8 64 24 64 36 0 4 5 5 10 2 6 -3 10 -1 10 4 0 16 -7 13 -109 -44z" />
    <path d="M1800 2339 c0 -5 -4 -8 -8 -5 -5 3 -18 -3 -29 -14 -12 -10 -24 -16
-27 -13 -3 4 -6 1 -6 -5 0 -16 3 -15 44 9 31 18 47 39 31 39 -3 0 -5 -5 -5
-11z" />
    <path d="M1864 2275 c-4 -8 -10 -12 -15 -9 -5 3 -12 -2 -15 -10 -3 -9 -10 -13
-15 -10 -5 3 -12 -2 -15 -10 -3 -9 -10 -13 -15 -10 -5 3 -9 0 -9 -5 0 -16 7
-14 55 19 47 32 63 50 45 50 -6 0 -13 -7 -16 -15z" />
    <path d="M2164 2215 c-4 -8 -10 -13 -14 -10 -5 3 -13 -2 -18 -11 -5 -9 -13
-15 -18 -14 -5 1 -10 -4 -13 -11 l-4 -13 24 15 c13 9 34 22 47 30 23 15 29 29
12 29 -6 0 -13 -7 -16 -15z" />
    <path d="M2182 2195 l-33 -23 10 -7 11 -6 6 15 c3 9 10 14 14 11 8 -5 36 23
29 29 -2 2 -19 -6 -37 -19z" />
    <path d="M1173 2193 l-33 -17 0 -15 1 -16 13 17 c7 10 16 15 19 11 11 -10 8
-25 -3 -18 -5 3 -10 1 -10 -5 0 -13 -3 -14 68 23 30 16 52 31 49 33 -3 3 -16
0 -28 -7 l-23 -12 -4 12 c-5 14 -10 13 -49 -6z" />
    <path d="M1750 2199 c0 -5 -5 -7 -10 -4 -6 3 -13 -1 -16 -9 -3 -9 -10 -13 -15
-10 -5 3 -12 -2 -15 -10 -3 -9 -10 -13 -15 -10 -5 3 -12 -2 -15 -10 -3 -9 -10
-13 -15 -10 -5 3 -12 -2 -15 -10 -3 -9 -9 -14 -14 -11 -4 2 -16 -5 -28 -15
l-21 -20 -8 15 -8 14 -12 -7 -11 -7 12 -17 13 -17 106 69 c103 66 119 80 97
80 -5 0 -10 -5 -10 -11z" />
    <path d="M1514 2165 c-4 -8 -10 -12 -15 -9 -5 3 -12 -2 -15 -10 -3 -9 -10 -13
-15 -10 -5 3 -9 0 -9 -7 0 -7 -3 -9 -6 -6 -8 8 -64 -24 -64 -36 0 -5 -6 -4
-14 2 l-14 12 -69 -42 c-37 -22 -79 -48 -92 -56 l-23 -15 9 -9 c12 -12 45 -1
37 12 l-5 9 17 -7 17 -6 -7 12 c-4 6 -4 11 1 10 20 -3 32 2 29 14 -1 6 -1 9 1
5 3 -5 9 -8 14 -8 6 0 8 4 5 8 -3 5 0 9 7 9 19 0 185 92 216 119 l26 23 -13 1
c-7 0 -15 -7 -18 -15z" />
    <path d="M1487 2121 c-54 -32 -104 -64 -110 -70 l-11 -11 12 0 c7 0 12 6 13
13 0 6 3 4 7 -5 l7 -18 93 62 c50 33 92 67 92 74 0 18 9 22 -103 -45z" />
    <path d="M2064 2145 c-4 -8 -10 -12 -15 -9 -5 3 -12 -2 -15 -10 -3 -9 -10 -13
-15 -10 -5 3 -12 -2 -15 -10 -3 -9 -10 -13 -15 -10 -5 3 -12 -2 -15 -10 -3 -9
-9 -14 -13 -12 -8 6 -46 -22 -39 -29 6 -6 152 88 162 104 4 6 2 11 -4 11 -6 0
-13 -7 -16 -15z" />
    <path d="M1982 2058 l-152 -101 0 -19 c0 -10 4 -18 9 -18 5 0 7 10 3 22 l-5
21 11 -7 12 -7 6 15 c3 9 10 13 15 10 5 -3 12 2 15 10 3 9 10 13 15 10 5 -3
12 2 15 10 3 9 10 13 15 10 5 -3 12 2 15 10 3 9 10 13 15 10 5 -3 12 2 15 10
3 9 10 13 15 10 5 -3 12 2 15 10 3 9 10 13 15 10 5 -3 12 2 15 10 3 9 10 13
15 10 5 -3 12 2 15 10 3 9 10 13 15 10 5 -3 12 2 15 10 3 9 10 14 14 11 9 -5
25 13 18 20 -2 2 -72 -41 -156 -97z" />
    <path d="M1018 2089 c-22 -12 -23 -29 -3 -29 8 0 19 9 25 20 12 22 4 25 -22 9z" />
    <path d="M1794 2055 c-4 -8 -10 -12 -15 -9 -5 3 -12 -2 -15 -10 -3 -9 -10 -13
-15 -10 -5 3 -9 0 -9 -6 0 -6 -5 -8 -10 -5 -6 3 -13 -1 -16 -9 -3 -9 -10 -13
-15 -10 -5 3 -9 0 -9 -6 0 -6 -4 -9 -10 -5 -5 3 -18 -3 -29 -14 -11 -11 -22
-17 -25 -13 -3 3 -6 0 -6 -7 0 -7 -4 -9 -10 -6 -5 3 -10 1 -10 -5 0 -6 -4 -9
-10 -5 -5 3 -7 12 -4 20 4 8 10 12 15 9 5 -3 9 0 9 5 0 14 -11 13 -32 -3 l-17
-13 10 -10 11 -11 -12 -7 -12 -8 -8 13 -7 12 -20 -13 -20 -12 5 -21 5 -21 -15
13 -16 13 -66 -42 c-81 -50 -88 -69 -19 -45 12 4 21 12 19 19 -1 7 -1 9 1 5 3
-5 9 -8 14 -8 6 0 7 4 4 10 l-6 10 18 -7 18 -7 -15 20 -15 19 16 -12 15 -12
145 80 c79 45 156 90 171 100 l26 19 19 -7 18 -7 -17 17 c-20 21 -27 21 -34 2z" />
    <path d="M1283 2001 c-63 -36 -69 -47 -41 -64 l15 -10 36 25 36 25 -10 10 -11
11 12 7 12 8 9 -14 8 -13 8 8 8 9 -12 4 c-7 3 -13 9 -13 14 0 6 5 7 10 4 6 -3
10 -1 10 4 0 16 -8 13 -77 -28z m21 -26 c-4 -8 -10 -12 -15 -9 -5 3 -12 -1
-15 -9 -6 -18 -34 -18 -34 0 0 8 4 12 9 9 4 -3 17 3 27 13 21 21 36 18 28 -4z" />
    <path d="M1890 2029 c0 -5 -5 -7 -10 -4 -6 3 -13 -1 -16 -9 -3 -9 -10 -13 -15
-10 -5 3 -12 -2 -15 -10 -3 -9 -10 -13 -15 -10 -5 3 -12 -2 -15 -10 -3 -9 -10
-13 -15 -10 -5 3 -9 0 -9 -5 0 -17 7 -14 71 29 59 41 68 50 49 50 -5 0 -10 -5
-10 -11z" />
    <path d="M1740 1989 c-35 -22 -69 -44 -74 -49 l-10 -10 12 0 c7 0 12 5 12 11
0 5 5 7 10 4 6 -3 10 -1 10 5 0 6 5 8 10 5 6 -3 10 -1 10 5 0 6 5 8 10 5 6 -3
13 1 16 9 3 9 10 13 15 10 5 -3 12 2 15 10 3 9 10 14 14 11 8 -5 25 13 19 20
-2 2 -33 -15 -69 -36z" />
    <path d="M1362 1922 c-23 -16 -39 -32 -35 -36 4 -4 -1 -4 -11 0 l-19 7 5 -13
c8 -24 24 -21 71 15 72 55 63 76 -11 27z" />
    <path d="M1750 1939 c0 -5 -5 -7 -10 -4 -6 3 -13 -1 -16 -9 -3 -9 -10 -13 -15
-10 -5 3 -12 -2 -15 -10 -3 -9 -10 -13 -15 -10 -5 3 -7 10 -4 15 4 5 1 9 -4 9
-6 0 -11 -3 -11 -8 0 -4 -18 -18 -39 -31 l-39 -25 5 -12 5 -13 24 11 c13 6 21
15 17 21 l-6 10 10 -6 c6 -4 38 11 72 33 60 39 71 50 51 50 -5 0 -10 -5 -10
-11z" />
    <path d="M1767 1918 l-48 -31 15 -15 15 -15 33 22 33 23 1 24 c1 13 1 24 0 24
0 0 -23 -14 -49 -32z" />
    <path d="M1475 1840 c-49 -27 -94 -51 -100 -53 l-10 -4 9 -9 9 -9 4 13 c3 6 9
10 14 6 5 -3 9 0 9 7 0 7 2 10 5 7 8 -8 -6 -39 -15 -33 -5 3 -11 1 -15 -5 -11
-18 15 -11 50 13 l34 24 -9 11 -10 12 11 -9 c14 -11 41 -3 33 10 -3 5 -2 9 3
8 20 -3 32 2 29 14 -1 6 -1 9 1 5 2 -4 11 -4 19 -1 7 3 11 9 8 14 -3 5 0 8 7
7 6 -2 14 3 16 10 7 19 -6 14 -102 -38z" />
    <path d="M1609 1820 c-56 -35 -66 -46 -36 -41 5 1 5 -4 2 -10 l-7 -11 -10 10
-10 10 -23 -10 c-13 -6 -22 -16 -21 -22 2 -6 1 -8 -1 -4 -3 4 -22 -1 -44 -13
-39 -20 -58 -43 -45 -56 4 -4 9 3 13 15 3 12 9 19 14 16 5 -3 9 0 9 6 0 6 5 8
11 4 l11 -6 -11 -11 c-18 -18 -12 -28 8 -15 l20 12 -10 12 -10 12 12 8 13 8 4
-12 c2 -6 10 -8 18 -5 7 3 11 9 8 14 -3 5 -2 14 2 20 l7 11 6 -10 7 -11 64 45
c36 25 69 49 73 53 l9 9 -9 5 c-5 3 -38 -12 -74 -33z" />
    <path d="M1677 1780 c-110 -83 -123 -95 -109 -104 10 -6 72 51 72 66 0 5 4 7
9 3 5 -3 17 5 25 17 9 12 16 18 16 13 1 -6 10 1 20 14 11 13 20 19 20 15 1 -5
9 1 20 14 10 13 22 22 27 22 4 -1 9 3 11 9 6 18 -1 14 -111 -69z" />
    <path d="M1537 1824 c-21 -14 -35 -29 -32 -35 l6 -9 39 21 38 22 -5 13 c-6 17
-2 19 -46 -12z" />
    <path d="M1700 1731 c0 -5 -38 -42 -84 -84 l-84 -74 8 -13 8 -14 86 90 c84 87
96 104 76 104 -5 0 -10 -4 -10 -9z" />
    <path d="M1528 1666 l-17 -12 8 -12 7 -12 18 19 c20 22 9 35 -16 17z" />
    <path d="M1718 1628 c-14 -15 -23 -30 -19 -33 5 -2 20 9 34 25 34 38 21 45
-15 8z" />
    <path d="M1466 1616 l-29 -23 14 -5 c8 -3 24 2 36 12 l21 17 -7 11 -7 11 -28
-23z" />
    <path d="M1523 1432 l-102 -87 2 -15 c1 -8 7 -13 12 -10 6 3 9 9 7 13 -1 5 2
6 8 2 5 -3 39 21 75 55 35 33 69 60 76 60 6 0 9 6 6 13 -2 6 2 20 11 30 39 44
-2 18 -95 -61z" />
    <path d="M1200 1019 c-36 -28 -66 -55 -67 -60 -1 -5 1 -5 4 1 2 5 9 8 13 5 5
-3 16 5 24 17 9 12 16 18 16 13 1 -6 9 0 19 12 10 12 21 19 25 16 3 -3 8 2 12
11 l6 17 12 -10 12 -10 1 20 c2 27 -4 24 -77 -32z" />
  </g>
  <g transform="translate(0.000000,512.000000) scale(0.100000,-0.100000)" fill="#555c86" stroke="none">
    <path d="M1267 2359 c-22 -11 -37 -23 -34 -25 2 -3 21 5 41 17 20 11 43 18 51
15 8 -3 15 -1 15 4 0 16 -32 11 -73 -11z" />
    <path d="M1942 2326 c-67 -46 -97 -72 -47 -41 69 42 129 85 120 84 -6 0 -38
-20 -73 -43z" />
    <path d="M1310 2255 c-47 -24 -82 -44 -77 -44 10 -1 167 78 167 84 0 7 4 9
-90 -40z" />
    <path d="M993 2247 l0 -14 21 4 21 4 -32 -18 c-18 -9 -33 -20 -33 -25 0 -12 6
-10 44 10 l34 19 -6 10 c-4 6 -16 13 -28 17 l-21 6 0 -13z" />
    <path d="M1075 2222 c-46 -24 -25 -32 28 -11 28 11 53 22 55 23 9 9 -63 -1
-83 -12z" />
    <path d="M1238 2189 c-32 -16 -58 -32 -58 -34 0 -5 119 52 129 61 13 12 -22
-1 -71 -27z" />
    <path d="M1717 2176 c-55 -39 -76 -59 -32 -31 62 38 99 65 90 64 -6 0 -32 -15
-58 -33z" />
    <path d="M1137 2174 c-3 -3 -3 -12 -1 -19 l5 -13 -20 -7 c-12 -3 -21 -11 -21
-16 0 -6 -4 -8 -9 -4 -11 6 -101 -35 -101 -47 0 -4 7 -8 16 -8 l15 0 -7 12 -7
11 17 -6 17 -7 -7 11 -7 12 14 -5 c8 -3 35 5 60 18 l46 23 5 26 c5 24 -2 32
-15 19z" />
    <path d="M1570 2170 c-8 -5 -15 -15 -15 -21 0 -7 -6 -14 -14 -17 -8 -3 -11 0
-8 5 l6 9 -24 -1 c-13 0 -27 -4 -32 -9 l-8 -9 12 7 c7 4 20 3 29 -2 l15 -9
-96 -63 c-52 -34 -94 -65 -92 -67 8 -7 241 158 243 172 3 18 3 17 -16 5z" />
    <path d="M1695 2130 c-33 -22 -57 -40 -52 -40 8 0 117 71 117 76 0 7 -4 4 -65
-36z" />
    <path d="M933 2117 c-42 -20 -56 -37 -30 -37 20 1 72 34 75 48 3 15 6 15 -45
-11z" />
    <path d="M1475 2059 c-54 -38 -96 -69 -92 -69 8 0 183 115 202 131 l9 9 -9 -1
c-6 -1 -55 -32 -110 -70z" />
    <path d="M1887 2026 c-55 -39 -76 -59 -32 -31 62 38 99 65 90 64 -6 0 -32 -15
-58 -33z" />
    <path d="M544 2026 l-6 -15 -14 6 -15 5 3 -13 3 -14 -17 0 c-21 0 -31 -11 -33
-35 l-2 -19 21 23 c12 12 36 31 54 41 32 19 42 35 22 35 -6 0 -13 -6 -16 -14z" />
    <path d="M1440 1967 c-19 -12 -36 -27 -37 -34 l-3 -12 15 5 c8 3 13 10 12 16
-1 6 6 12 17 13 21 4 42 22 35 29 -3 3 -20 -5 -39 -17z" />
    <path d="M1655 1937 l-18 -14 7 -11 7 -11 -123 -82 c-144 -96 -133 -87 -125
-95 8 -9 86 37 84 50 -1 5 8 11 21 12 25 1 37 10 37 27 0 5 6 12 14 15 l14 5
-8 -13 -8 -13 31 19 32 18 -11 7 -11 6 37 23 36 22 -5 13 c-2 7 1 18 7 24 15
15 5 14 -18 -2z" />
    <path d="M1404 1898 c-16 -13 -30 -29 -32 -37 l-3 -13 32 20 c18 11 34 27 35
36 3 20 4 20 -32 -6z" />
    <path d="M1595 1810 c-16 -11 -24 -20 -17 -20 l13 0 -7 -11 c-4 -7 7 -3 25 7
17 10 27 20 21 22 -5 2 -8 8 -4 13 8 13 3 11 -31 -11z" />
    <path d="M1555 1686 c-10 -7 -19 -21 -21 -30 l-2 -16 21 15 c11 8 22 21 23 30
3 18 2 18 -21 1z" />
    <path d="M1481 1572 c-17 -16 -33 -27 -36 -24 -3 3 -5 -3 -5 -14 l1 -19 20 25
c12 14 25 25 30 25 13 0 33 24 26 31 -3 4 -20 -7 -36 -24z" />
    <path d="M1522 1510 c-29 -24 -14 -34 17 -11 13 10 20 21 15 24 -5 3 -19 -3
-32 -13z" />
    <path d="M1460 1345 c-25 -26 -42 -26 -20 0 l13 15 -16 -5 c-14 -6 -33 -53
-24 -61 2 -2 23 14 47 36 24 22 39 40 33 40 -5 0 -20 -11 -33 -25z" />
  </g>
  <g transform="translate(0.000000,512.000000) scale(0.100000,-0.100000)" fill="#767282" stroke="none">
    <path d="M4538 4104 c-27 -13 -48 -27 -48 -29 0 -5 99 42 109 51 13 11 -20 0
-61 -22z" />
    <path d="M1845 2230 c-49 -33 -86 -60 -82 -60 8 0 152 94 172 111 23 21 -6 5
-90 -51z" />
    <path d="M1827 2246 c-59 -41 -73 -55 -29 -30 33 19 91 63 82 63 -3 0 -27 -15
-53 -33z" />
    <path d="M1154 2232 l8 -13 -32 -11 -32 -10 10 -10 10 -10 48 27 c27 14 41 24
30 20 -10 -3 -26 0 -34 7 l-16 13 8 -13z" />
    <path d="M1321 2206 c-25 -13 -45 -30 -47 -39 l-2 -17 18 10 c9 5 20 6 24 3 3
-3 6 -1 6 6 l0 12 -22 -6 c-13 -3 -2 6 25 20 26 14 47 28 47 30 0 7 1 7 -49
-19z" />
    <path d="M1028 2199 c-21 -11 -38 -24 -38 -29 l0 -10 35 17 c19 9 36 22 39 30
6 16 9 16 -36 -8z" />
    <path d="M1012 2157 l-43 -23 8 -9 8 -8 -18 6 -18 7 7 -12 7 -11 -15 5 -15 6
0 -13 0 -13 62 30 c34 17 62 37 62 44 0 8 -1 14 -1 14 -1 -1 -20 -11 -44 -23z" />
    <path d="M828 2134 c-16 -8 -28 -19 -28 -25 l0 -10 30 16 c17 9 30 20 30 25 0
12 1 12 -32 -6z" />
    <path d="M1140 2140 c0 -6 -4 -8 -10 -5 -5 3 -10 1 -10 -5 0 -6 -4 -8 -10 -5
-5 3 -21 0 -36 -8 l-27 -14 17 -6 17 -7 -7 12 -7 11 14 -5 c8 -3 30 2 48 12
l34 17 -12 7 -11 7 0 -11z" />
    <path d="M2012 2106 c-61 -42 -92 -68 -62 -51 32 18 130 86 130 90 0 7 0 7
-68 -39z" />
    <path d="M1112 2097 c-68 -34 -72 -43 -27 -61 l30 -13 20 19 20 20 -25 -12
-25 -11 -25 9 -25 9 63 32 c34 17 62 33 62 36 0 7 3 8 -68 -28z" />
    <path d="M1985 2060 c-33 -22 -57 -40 -52 -40 8 0 117 71 117 76 0 7 -4 4 -65
-36z" />
    <path d="M1540 1940 c-41 -27 -72 -50 -67 -50 8 0 147 91 147 96 0 7 -4 4 -80
-46z" />
    <path d="M1622 1923 c-7 -2 -17 -14 -24 -26 l-11 -21 27 17 c15 10 31 15 36
12 5 -3 12 0 16 6 l7 12 -11 -7 -12 -7 0 10 c0 12 -7 13 -28 4z" />
    <path d="M1531 1871 l-13 -9 13 -4 13 -4 -37 -23 c-20 -12 -37 -25 -37 -28 0
-5 26 10 75 44 l19 13 -12 0 c-7 0 -10 5 -7 10 8 12 4 12 -14 1z" />
    <path d="M1569 1739 c-56 -40 -53 -38 -47 -45 7 -6 98 57 98 68 0 12 -3 11
-51 -23z" />
    <path d="M1545 1625 c-22 -18 -37 -36 -34 -39 3 -3 23 10 44 29 22 18 37 36
34 39 -3 3 -23 -10 -44 -29z" />
    <path d="M1470 1313 l-55 -58 58 55 c31 30 57 56 57 57 0 8 -10 -1 -60 -54z" />
  </g>
  <g transform="translate(0.000000,512.000000) scale(0.100000,-0.100000)" fill="#dbac5a" stroke="none">
    <path d="M1150 2210 c0 -5 -3 -9 -7 -8 -5 2 -19 -5 -33 -15 -13 -9 -19 -17
-13 -17 6 0 18 7 27 15 8 9 18 16 21 15 19 -1 25 1 25 10 0 6 -4 10 -10 10 -5
0 -10 -4 -10 -10z" />
    <path d="M1157 2184 c-27 -14 -47 -27 -45 -30 3 -2 29 9 59 26 65 36 54 39
-14 4z" />
    <path d="M923 2147 c-57 -28 -103 -55 -103 -59 0 -14 31 -8 36 7 4 8 10 12 15
9 5 -3 9 0 9 5 0 6 4 10 8 9 12 -4 112 44 112 54 0 5 5 6 10 3 6 -3 10 -1 10
5 l0 11 12 -7 11 -7 -7 11 c-4 7 -8 12 -9 11 -1 0 -48 -23 -104 -52z" />
    <path d="M1144 2025 l-19 -15 19 7 19 6 -7 -11 -7 -12 14 0 c8 0 21 7 28 16
l14 17 -24 -8 -24 -7 7 11 c10 15 3 14 -20 -4z" />
    <path d="M1660 1803 c-14 -9 -32 -25 -41 -35 -9 -10 -20 -14 -24 -10 -5 4 -5
1 -1 -6 l7 -13 40 31 c55 44 68 67 19 33z" />
    <path d="M1485 1461 c1 -9 -2 -22 -8 -28 l-9 -13 15 0 c9 0 19 5 23 12 l8 12
-13 4 -12 4 10 12 11 13 -14 0 -14 0 3 -16z" />
  </g>
  <g transform="translate(0.000000,512.000000) scale(0.100000,-0.100000)" fill="#968574" stroke="none">
    <path d="M943 2152 c-29 -14 -53 -30 -53 -34 0 -4 25 4 55 19 30 15 55 31 55
35 0 10 4 12 -57 -20z" />
    <path d="M1464 1415 c-21 -19 -34 -34 -29 -34 15 -1 81 56 74 63 -3 3 -23 -10
-45 -29z" />
    <path d="M1395 1240 c-38 -39 -28 -47 15 -11 l34 28 -11 6 c-5 3 -23 -7 -38
-23z" />
  </g>
  <g transform="translate(0.000000,512.000000) scale(0.100000,-0.100000)" fill="#b99b6b" stroke="none">
    <path d="M775 2102 c-22 -13 -31 -21 -20 -17 11 4 28 10 38 12 9 3 17 10 17
15 0 5 4 7 9 3 5 -3 12 -2 15 3 10 16 -19 8 -59 -16z" />
    <path d="M1530 1471 c-19 -16 -33 -31 -30 -34 3 -3 23 10 44 29 22 19 35 34
30 34 -5 0 -25 -13 -44 -29z" />
  </g>
  <g transform="translate(0.000000,512.000000) scale(0.100000,-0.100000)" fill="#e99d41" stroke="none">
    <path d="M630 2064 l-25 -15 21 6 21 5 -5 -32 c-2 -18 -2 -31 1 -28 3 3 7 19
8 35 2 17 8 33 14 37 l10 8 -10 -1 c-5 0 -21 -6 -35 -15z" />
  </g>
  <g transform="translate(0.000000,512.000000) scale(0.100000,-0.100000)" fill="#d2d8e5" stroke="none">
    <path d="M4778 4229 c-32 -16 -58 -32 -58 -34 0 -5 119 52 129 61 13 12 -22
-1 -71 -27z" />
    <path d="M2168 2869 c-32 -16 -58 -32 -58 -34 0 -3 27 8 60 25 33 17 60 32 60
35 0 7 2 8 -62 -26z" />
    <path d="M1918 2739 c-32 -16 -58 -32 -58 -34 0 -3 27 8 60 25 33 17 60 32 60
35 0 7 2 8 -62 -26z" />
    <path d="M1678 2614 c-27 -13 -48 -27 -48 -29 0 -5 99 42 109 51 13 11 -20 0
-61 -22z" />
    <path d="M1438 2489 c-32 -16 -58 -32 -58 -34 0 -3 27 8 60 25 33 17 60 32 60
35 0 7 2 8 -62 -26z" />
    <path d="M1208 2369 c-32 -16 -58 -32 -58 -34 0 -3 27 8 60 25 33 17 60 32 60
35 0 7 2 8 -62 -26z" />
  </g>
  <g transform="translate(0.000000,512.000000) scale(0.100000,-0.100000)" fill="#607ead" stroke="none">
    <path d="M1490 1233 l-55 -58 58 55 c53 50 62 60 54 60 -1 0 -27 -26 -57 -57z" />
  </g>
  <g transform="translate(0.000000,512.000000) scale(0.100000,-0.100000)" fill="#cf7b3d" stroke="none" />
  <g transform="translate(0.000000,512.000000) scale(0.100000,-0.100000)" fill="#af7452" stroke="none" />
  <g transform="translate(0.000000,512.000000) scale(0.100000,-0.100000)" fill="#999db7" stroke="none" />
  <g transform="translate(0.000000,512.000000) scale(0.100000,-0.100000)" fill="#a8b7d0" stroke="none" />
</svg>